<svg viewBox="0 0 1920 1080" xmlns="http://www.w3.org/2000/svg" role="img" aria-label="Retro sci-fi robots inspired wallpaper">
  <defs>
    <linearGradient id="sky" x1="0" y1="0" x2="0" y2="1">
      <stop offset="0%" stop-color="#41295a"/>
      <stop offset="100%" stop-color="#2f0743"/>
    </linearGradient>
    <linearGradient id="ground" x1="0" y1="0" x2="1" y2="0">
      <stop offset="0%" stop-color="#5b4636"/>
      <stop offset="100%" stop-color="#7a5f47"/>
    </linearGradient>
  </defs>

  <rect width="1920" height="1080" fill="url(#sky)"/>
  <rect y="760" width="1920" height="320" fill="url(#ground)"/>

  <g fill="#d6a64c" stroke="#7b5324" stroke-width="6">
    <path d="M420 800 L500 560 L660 560 L740 800 Z"/>
    <path d="M960 820 L1040 530 L1210 530 L1290 820 Z"/>
    <path d="M1380 820 L1460 585 L1600 585 L1680 820 Z"/>
  </g>

  <g fill="#cfd8e5" stroke="#2a3442" stroke-width="6">
    <ellipse cx="580" cy="520" rx="95" ry="55"/>
    <ellipse cx="1125" cy="490" rx="100" ry="58"/>
    <ellipse cx="1530" cy="545" rx="88" ry="50"/>
  </g>

  <g fill="#f0c86d">
    <circle cx="540" cy="680" r="16"/>
    <circle cx="620" cy="700" r="16"/>
    <circle cx="1120" cy="660" r="16"/>
    <circle cx="1185" cy="720" r="16"/>
    <circle cx="1490" cy="700" r="14"/>
    <circle cx="1570" cy="720" r="14"/>
  </g>
</svg>

