<svg viewBox="0 0 1920 1080" xmlns="http://www.w3.org/2000/svg" role="img" aria-label="Green hill wallpaper inspired by classic systems">
  <defs>
    <linearGradient id="sky" x1="0" y1="0" x2="0" y2="1">
      <stop offset="0%" stop-color="#7fc7ff"/>
      <stop offset="65%" stop-color="#b8e3ff"/>
      <stop offset="100%" stop-color="#d9f1ff"/>
    </linearGradient>
    <linearGradient id="hill" x1="0" y1="0" x2="1" y2="1">
      <stop offset="0%" stop-color="#49b748"/>
      <stop offset="100%" stop-color="#2a8f2d"/>
    </linearGradient>
  </defs>

  <rect width="1920" height="1080" fill="url(#sky)"/>

  <g fill="#ffffff" opacity="0.9">
    <ellipse cx="320" cy="230" rx="140" ry="55"/>
    <ellipse cx="410" cy="220" rx="110" ry="45"/>
    <ellipse cx="1200" cy="180" rx="160" ry="60"/>
    <ellipse cx="1320" cy="170" rx="120" ry="45"/>
  </g>

  <path d="M0 760 C 260 600, 610 560, 940 700 C 1240 830, 1530 860, 1920 720 L1920 1080 L0 1080 Z" fill="url(#hill)"/>
  <path d="M0 840 C 360 700, 760 680, 1140 790 C 1450 885, 1680 900, 1920 840 L1920 1080 L0 1080 Z" fill="#2f9f33" opacity="0.9"/>
</svg>

