<?xml version="1.0" encoding="UTF-8"?>
<svg xmlns="http://www.w3.org/2000/svg" width="920" height="320" viewBox="0 0 920 320" role="img" aria-label="GitHub Arkanoid">
  <defs>
    <style>
      svg { background: transparent; }
      .frame { fill: #0d1117; stroke: #30363d; }
      .title { fill: #c9d1d9; font: 600 15px -apple-system,BlinkMacSystemFont,"Segoe UI",Helvetica,Arial,sans-serif; }
      .month, .day-label { fill: #7d8590; font: 10px -apple-system,BlinkMacSystemFont,"Segoe UI",Helvetica,Arial,sans-serif; }
      .brick { shape-rendering: geometricPrecision; transition: opacity .14s linear, transform .14s linear; }
      .l0 { fill: #161b22; }
      .l1 { fill: #0e4429; }
      .l2 { fill: #006d32; }
      .l3 { fill: #26a641; }
      .l4 { fill: #39d353; }
      .paddle { fill: #f0f6fc; }
      .ball { fill: #58a6ff; }
    </style>
  </defs>

  <!-- One visible container only -->
  <rect class="frame" x="20" y="20" width="880" height="280" rx="10" ry="10"/>

  <text class="title" x="48" y="48">davidemaggi / contributions → arkanoid</text>

  <text class="month" x="110" y="70">Apr</text>
<text class="month" x="136" y="70">May</text>
<text class="month" x="188" y="70">Jun</text>
<text class="month" x="253" y="70">Jul</text>
<text class="month" x="305" y="70">Aug</text>
<text class="month" x="370" y="70">Sep</text>
<text class="month" x="422" y="70">Oct</text>
<text class="month" x="474" y="70">Nov</text>
<text class="month" x="539" y="70">Dec</text>
<text class="month" x="591" y="70">Jan</text>
<text class="month" x="643" y="70">Feb</text>
<text class="month" x="695" y="70">Mar</text>
<text class="month" x="760" y="70">Apr</text>
  <text class="day-label" x="64" y="107">Mon</text>
<text class="day-label" x="64" y="133">Wed</text>
<text class="day-label" x="64" y="159">Fri</text>

  <g id="grid">
    <rect id="b-0-0" class="brick l0" data-alive="0" x="110" y="86" width="10" height="10" rx="2" ry="2"/><rect id="b-0-1" class="brick l0" data-alive="0" x="110" y="99" width="10" height="10" rx="2" ry="2"/><rect id="b-0-2" class="brick l0" data-alive="0" x="110" y="112" width="10" height="10" rx="2" ry="2"/><rect id="b-0-3" class="brick l0" data-alive="0" x="110" y="125" width="10" height="10" rx="2" ry="2"/><rect id="b-0-4" class="brick l0" data-alive="0" x="110" y="138" width="10" height="10" rx="2" ry="2"/><rect id="b-0-5" class="brick l0" data-alive="0" x="110" y="151" width="10" height="10" rx="2" ry="2"/><rect id="b-0-6" class="brick l0" data-alive="0" x="110" y="164" width="10" height="10" rx="2" ry="2"/><rect id="b-1-0" class="brick l0" data-alive="0" x="123" y="86" width="10" height="10" rx="2" ry="2"/><rect id="b-1-1" class="brick l0" data-alive="0" x="123" y="99" width="10" height="10" rx="2" ry="2"/><rect id="b-1-2" class="brick l0" data-alive="0" x="123" y="112" width="10" height="10" rx="2" ry="2"/><rect id="b-1-3" class="brick l0" data-alive="0" x="123" y="125" width="10" height="10" rx="2" ry="2"/><rect id="b-1-4" class="brick l0" data-alive="0" x="123" y="138" width="10" height="10" rx="2" ry="2"/><rect id="b-1-5" class="brick l0" data-alive="0" x="123" y="151" width="10" height="10" rx="2" ry="2"/><rect id="b-1-6" class="brick l0" data-alive="0" x="123" y="164" width="10" height="10" rx="2" ry="2"/><rect id="b-2-0" class="brick l0" data-alive="0" x="136" y="86" width="10" height="10" rx="2" ry="2"/><rect id="b-2-1" class="brick l0" data-alive="0" x="136" y="99" width="10" height="10" rx="2" ry="2"/><rect id="b-2-2" class="brick l0" data-alive="0" x="136" y="112" width="10" height="10" rx="2" ry="2"/><rect id="b-2-3" class="brick l0" data-alive="0" x="136" y="125" width="10" height="10" rx="2" ry="2"/><rect id="b-2-4" class="brick l0" data-alive="0" x="136" y="138" width="10" height="10" rx="2" ry="2"/><rect id="b-2-5" class="brick l0" data-alive="0" x="136" y="151" width="10" height="10" rx="2" ry="2"/><rect id="b-2-6" class="brick l0" data-alive="0" x="136" y="164" width="10" height="10" rx="2" ry="2"/><rect id="b-3-0" class="brick l0" data-alive="0" x="149" y="86" width="10" height="10" rx="2" ry="2"/><rect id="b-3-1" class="brick l0" data-alive="0" x="149" y="99" width="10" height="10" rx="2" ry="2"/><rect id="b-3-2" class="brick l0" data-alive="0" x="149" y="112" width="10" height="10" rx="2" ry="2"/><rect id="b-3-3" class="brick l0" data-alive="0" x="149" y="125" width="10" height="10" rx="2" ry="2"/><rect id="b-3-4" class="brick l0" data-alive="0" x="149" y="138" width="10" height="10" rx="2" ry="2"/><rect id="b-3-5" class="brick l0" data-alive="0" x="149" y="151" width="10" height="10" rx="2" ry="2"/><rect id="b-3-6" class="brick l0" data-alive="0" x="149" y="164" width="10" height="10" rx="2" ry="2"/><rect id="b-4-0" class="brick l0" data-alive="0" x="162" y="86" width="10" height="10" rx="2" ry="2"/><rect id="b-4-1" class="brick l1" data-alive="1" x="162" y="99" width="10" height="10" rx="2" ry="2"/><rect id="b-4-2" class="brick l0" data-alive="0" x="162" y="112" width="10" height="10" rx="2" ry="2"/><rect id="b-4-3" class="brick l0" data-alive="0" x="162" y="125" width="10" height="10" rx="2" ry="2"/><rect id="b-4-4" class="brick l1" data-alive="1" x="162" y="138" width="10" height="10" rx="2" ry="2"/><rect id="b-4-5" class="brick l0" data-alive="0" x="162" y="151" width="10" height="10" rx="2" ry="2"/><rect id="b-4-6" class="brick l0" data-alive="0" x="162" y="164" width="10" height="10" rx="2" ry="2"/><rect id="b-5-0" class="brick l0" data-alive="0" x="175" y="86" width="10" height="10" rx="2" ry="2"/><rect id="b-5-1" class="brick l1" data-alive="1" x="175" y="99" width="10" height="10" rx="2" ry="2"/><rect id="b-5-2" class="brick l0" data-alive="0" x="175" y="112" width="10" height="10" rx="2" ry="2"/><rect id="b-5-3" class="brick l0" data-alive="0" x="175" y="125" width="10" height="10" rx="2" ry="2"/><rect id="b-5-4" class="brick l1" data-alive="1" x="175" y="138" width="10" height="10" rx="2" ry="2"/><rect id="b-5-5" class="brick l0" data-alive="0" x="175" y="151" width="10" height="10" rx="2" ry="2"/><rect id="b-5-6" class="brick l0" data-alive="0" x="175" y="164" width="10" height="10" rx="2" ry="2"/><rect id="b-6-0" class="brick l1" data-alive="1" x="188" y="86" width="10" height="10" rx="2" ry="2"/><rect id="b-6-1" class="brick l3" data-alive="1" x="188" y="99" width="10" height="10" rx="2" ry="2"/><rect id="b-6-2" class="brick l4" data-alive="1" x="188" y="112" width="10" height="10" rx="2" ry="2"/><rect id="b-6-3" class="brick l4" data-alive="1" x="188" y="125" width="10" height="10" rx="2" ry="2"/><rect id="b-6-4" class="brick l1" data-alive="1" x="188" y="138" width="10" height="10" rx="2" ry="2"/><rect id="b-6-5" class="brick l0" data-alive="0" x="188" y="151" width="10" height="10" rx="2" ry="2"/><rect id="b-6-6" class="brick l0" data-alive="0" x="188" y="164" width="10" height="10" rx="2" ry="2"/><rect id="b-7-0" class="brick l0" data-alive="0" x="201" y="86" width="10" height="10" rx="2" ry="2"/><rect id="b-7-1" class="brick l1" data-alive="1" x="201" y="99" width="10" height="10" rx="2" ry="2"/><rect id="b-7-2" class="brick l1" data-alive="1" x="201" y="112" width="10" height="10" rx="2" ry="2"/><rect id="b-7-3" class="brick l1" data-alive="1" x="201" y="125" width="10" height="10" rx="2" ry="2"/><rect id="b-7-4" class="brick l2" data-alive="1" x="201" y="138" width="10" height="10" rx="2" ry="2"/><rect id="b-7-5" class="brick l0" data-alive="0" x="201" y="151" width="10" height="10" rx="2" ry="2"/><rect id="b-7-6" class="brick l0" data-alive="0" x="201" y="164" width="10" height="10" rx="2" ry="2"/><rect id="b-8-0" class="brick l2" data-alive="1" x="214" y="86" width="10" height="10" rx="2" ry="2"/><rect id="b-8-1" class="brick l3" data-alive="1" x="214" y="99" width="10" height="10" rx="2" ry="2"/><rect id="b-8-2" class="brick l4" data-alive="1" x="214" y="112" width="10" height="10" rx="2" ry="2"/><rect id="b-8-3" class="brick l2" data-alive="1" x="214" y="125" width="10" height="10" rx="2" ry="2"/><rect id="b-8-4" class="brick l1" data-alive="1" x="214" y="138" width="10" height="10" rx="2" ry="2"/><rect id="b-8-5" class="brick l0" data-alive="0" x="214" y="151" width="10" height="10" rx="2" ry="2"/><rect id="b-8-6" class="brick l0" data-alive="0" x="214" y="164" width="10" height="10" rx="2" ry="2"/><rect id="b-9-0" class="brick l1" data-alive="1" x="227" y="86" width="10" height="10" rx="2" ry="2"/><rect id="b-9-1" class="brick l3" data-alive="1" x="227" y="99" width="10" height="10" rx="2" ry="2"/><rect id="b-9-2" class="brick l3" data-alive="1" x="227" y="112" width="10" height="10" rx="2" ry="2"/><rect id="b-9-3" class="brick l4" data-alive="1" x="227" y="125" width="10" height="10" rx="2" ry="2"/><rect id="b-9-4" class="brick l1" data-alive="1" x="227" y="138" width="10" height="10" rx="2" ry="2"/><rect id="b-9-5" class="brick l0" data-alive="0" x="227" y="151" width="10" height="10" rx="2" ry="2"/><rect id="b-9-6" class="brick l0" data-alive="0" x="227" y="164" width="10" height="10" rx="2" ry="2"/><rect id="b-10-0" class="brick l2" data-alive="1" x="240" y="86" width="10" height="10" rx="2" ry="2"/><rect id="b-10-1" class="brick l3" data-alive="1" x="240" y="99" width="10" height="10" rx="2" ry="2"/><rect id="b-10-2" class="brick l4" data-alive="1" x="240" y="112" width="10" height="10" rx="2" ry="2"/><rect id="b-10-3" class="brick l2" data-alive="1" x="240" y="125" width="10" height="10" rx="2" ry="2"/><rect id="b-10-4" class="brick l1" data-alive="1" x="240" y="138" width="10" height="10" rx="2" ry="2"/><rect id="b-10-5" class="brick l0" data-alive="0" x="240" y="151" width="10" height="10" rx="2" ry="2"/><rect id="b-10-6" class="brick l0" data-alive="0" x="240" y="164" width="10" height="10" rx="2" ry="2"/><rect id="b-11-0" class="brick l2" data-alive="1" x="253" y="86" width="10" height="10" rx="2" ry="2"/><rect id="b-11-1" class="brick l4" data-alive="1" x="253" y="99" width="10" height="10" rx="2" ry="2"/><rect id="b-11-2" class="brick l2" data-alive="1" x="253" y="112" width="10" height="10" rx="2" ry="2"/><rect id="b-11-3" class="brick l2" data-alive="1" x="253" y="125" width="10" height="10" rx="2" ry="2"/><rect id="b-11-4" class="brick l2" data-alive="1" x="253" y="138" width="10" height="10" rx="2" ry="2"/><rect id="b-11-5" class="brick l0" data-alive="0" x="253" y="151" width="10" height="10" rx="2" ry="2"/><rect id="b-11-6" class="brick l0" data-alive="0" x="253" y="164" width="10" height="10" rx="2" ry="2"/><rect id="b-12-0" class="brick l0" data-alive="0" x="266" y="86" width="10" height="10" rx="2" ry="2"/><rect id="b-12-1" class="brick l4" data-alive="1" x="266" y="99" width="10" height="10" rx="2" ry="2"/><rect id="b-12-2" class="brick l2" data-alive="1" x="266" y="112" width="10" height="10" rx="2" ry="2"/><rect id="b-12-3" class="brick l2" data-alive="1" x="266" y="125" width="10" height="10" rx="2" ry="2"/><rect id="b-12-4" class="brick l2" data-alive="1" x="266" y="138" width="10" height="10" rx="2" ry="2"/><rect id="b-12-5" class="brick l0" data-alive="0" x="266" y="151" width="10" height="10" rx="2" ry="2"/><rect id="b-12-6" class="brick l0" data-alive="0" x="266" y="164" width="10" height="10" rx="2" ry="2"/><rect id="b-13-0" class="brick l2" data-alive="1" x="279" y="86" width="10" height="10" rx="2" ry="2"/><rect id="b-13-1" class="brick l4" data-alive="1" x="279" y="99" width="10" height="10" rx="2" ry="2"/><rect id="b-13-2" class="brick l3" data-alive="1" x="279" y="112" width="10" height="10" rx="2" ry="2"/><rect id="b-13-3" class="brick l3" data-alive="1" x="279" y="125" width="10" height="10" rx="2" ry="2"/><rect id="b-13-4" class="brick l2" data-alive="1" x="279" y="138" width="10" height="10" rx="2" ry="2"/><rect id="b-13-5" class="brick l0" data-alive="0" x="279" y="151" width="10" height="10" rx="2" ry="2"/><rect id="b-13-6" class="brick l0" data-alive="0" x="279" y="164" width="10" height="10" rx="2" ry="2"/><rect id="b-14-0" class="brick l0" data-alive="0" x="292" y="86" width="10" height="10" rx="2" ry="2"/><rect id="b-14-1" class="brick l2" data-alive="1" x="292" y="99" width="10" height="10" rx="2" ry="2"/><rect id="b-14-2" class="brick l2" data-alive="1" x="292" y="112" width="10" height="10" rx="2" ry="2"/><rect id="b-14-3" class="brick l3" data-alive="1" x="292" y="125" width="10" height="10" rx="2" ry="2"/><rect id="b-14-4" class="brick l2" data-alive="1" x="292" y="138" width="10" height="10" rx="2" ry="2"/><rect id="b-14-5" class="brick l0" data-alive="0" x="292" y="151" width="10" height="10" rx="2" ry="2"/><rect id="b-14-6" class="brick l0" data-alive="0" x="292" y="164" width="10" height="10" rx="2" ry="2"/><rect id="b-15-0" class="brick l2" data-alive="1" x="305" y="86" width="10" height="10" rx="2" ry="2"/><rect id="b-15-1" class="brick l2" data-alive="1" x="305" y="99" width="10" height="10" rx="2" ry="2"/><rect id="b-15-2" class="brick l3" data-alive="1" x="305" y="112" width="10" height="10" rx="2" ry="2"/><rect id="b-15-3" class="brick l3" data-alive="1" x="305" y="125" width="10" height="10" rx="2" ry="2"/><rect id="b-15-4" class="brick l3" data-alive="1" x="305" y="138" width="10" height="10" rx="2" ry="2"/><rect id="b-15-5" class="brick l0" data-alive="0" x="305" y="151" width="10" height="10" rx="2" ry="2"/><rect id="b-15-6" class="brick l0" data-alive="0" x="305" y="164" width="10" height="10" rx="2" ry="2"/><rect id="b-16-0" class="brick l1" data-alive="1" x="318" y="86" width="10" height="10" rx="2" ry="2"/><rect id="b-16-1" class="brick l2" data-alive="1" x="318" y="99" width="10" height="10" rx="2" ry="2"/><rect id="b-16-2" class="brick l2" data-alive="1" x="318" y="112" width="10" height="10" rx="2" ry="2"/><rect id="b-16-3" class="brick l3" data-alive="1" x="318" y="125" width="10" height="10" rx="2" ry="2"/><rect id="b-16-4" class="brick l2" data-alive="1" x="318" y="138" width="10" height="10" rx="2" ry="2"/><rect id="b-16-5" class="brick l0" data-alive="0" x="318" y="151" width="10" height="10" rx="2" ry="2"/><rect id="b-16-6" class="brick l0" data-alive="0" x="318" y="164" width="10" height="10" rx="2" ry="2"/><rect id="b-17-0" class="brick l2" data-alive="1" x="331" y="86" width="10" height="10" rx="2" ry="2"/><rect id="b-17-1" class="brick l4" data-alive="1" x="331" y="99" width="10" height="10" rx="2" ry="2"/><rect id="b-17-2" class="brick l2" data-alive="1" x="331" y="112" width="10" height="10" rx="2" ry="2"/><rect id="b-17-3" class="brick l2" data-alive="1" x="331" y="125" width="10" height="10" rx="2" ry="2"/><rect id="b-17-4" class="brick l2" data-alive="1" x="331" y="138" width="10" height="10" rx="2" ry="2"/><rect id="b-17-5" class="brick l0" data-alive="0" x="331" y="151" width="10" height="10" rx="2" ry="2"/><rect id="b-17-6" class="brick l0" data-alive="0" x="331" y="164" width="10" height="10" rx="2" ry="2"/><rect id="b-18-0" class="brick l2" data-alive="1" x="344" y="86" width="10" height="10" rx="2" ry="2"/><rect id="b-18-1" class="brick l2" data-alive="1" x="344" y="99" width="10" height="10" rx="2" ry="2"/><rect id="b-18-2" class="brick l4" data-alive="1" x="344" y="112" width="10" height="10" rx="2" ry="2"/><rect id="b-18-3" class="brick l2" data-alive="1" x="344" y="125" width="10" height="10" rx="2" ry="2"/><rect id="b-18-4" class="brick l2" data-alive="1" x="344" y="138" width="10" height="10" rx="2" ry="2"/><rect id="b-18-5" class="brick l0" data-alive="0" x="344" y="151" width="10" height="10" rx="2" ry="2"/><rect id="b-18-6" class="brick l0" data-alive="0" x="344" y="164" width="10" height="10" rx="2" ry="2"/><rect id="b-19-0" class="brick l0" data-alive="0" x="357" y="86" width="10" height="10" rx="2" ry="2"/><rect id="b-19-1" class="brick l2" data-alive="1" x="357" y="99" width="10" height="10" rx="2" ry="2"/><rect id="b-19-2" class="brick l4" data-alive="1" x="357" y="112" width="10" height="10" rx="2" ry="2"/><rect id="b-19-3" class="brick l2" data-alive="1" x="357" y="125" width="10" height="10" rx="2" ry="2"/><rect id="b-19-4" class="brick l2" data-alive="1" x="357" y="138" width="10" height="10" rx="2" ry="2"/><rect id="b-19-5" class="brick l0" data-alive="0" x="357" y="151" width="10" height="10" rx="2" ry="2"/><rect id="b-19-6" class="brick l0" data-alive="0" x="357" y="164" width="10" height="10" rx="2" ry="2"/><rect id="b-20-0" class="brick l1" data-alive="1" x="370" y="86" width="10" height="10" rx="2" ry="2"/><rect id="b-20-1" class="brick l2" data-alive="1" x="370" y="99" width="10" height="10" rx="2" ry="2"/><rect id="b-20-2" class="brick l2" data-alive="1" x="370" y="112" width="10" height="10" rx="2" ry="2"/><rect id="b-20-3" class="brick l4" data-alive="1" x="370" y="125" width="10" height="10" rx="2" ry="2"/><rect id="b-20-4" class="brick l1" data-alive="1" x="370" y="138" width="10" height="10" rx="2" ry="2"/><rect id="b-20-5" class="brick l0" data-alive="0" x="370" y="151" width="10" height="10" rx="2" ry="2"/><rect id="b-20-6" class="brick l1" data-alive="1" x="370" y="164" width="10" height="10" rx="2" ry="2"/><rect id="b-21-0" class="brick l1" data-alive="1" x="383" y="86" width="10" height="10" rx="2" ry="2"/><rect id="b-21-1" class="brick l2" data-alive="1" x="383" y="99" width="10" height="10" rx="2" ry="2"/><rect id="b-21-2" class="brick l3" data-alive="1" x="383" y="112" width="10" height="10" rx="2" ry="2"/><rect id="b-21-3" class="brick l2" data-alive="1" x="383" y="125" width="10" height="10" rx="2" ry="2"/><rect id="b-21-4" class="brick l2" data-alive="1" x="383" y="138" width="10" height="10" rx="2" ry="2"/><rect id="b-21-5" class="brick l0" data-alive="0" x="383" y="151" width="10" height="10" rx="2" ry="2"/><rect id="b-21-6" class="brick l0" data-alive="0" x="383" y="164" width="10" height="10" rx="2" ry="2"/><rect id="b-22-0" class="brick l1" data-alive="1" x="396" y="86" width="10" height="10" rx="2" ry="2"/><rect id="b-22-1" class="brick l2" data-alive="1" x="396" y="99" width="10" height="10" rx="2" ry="2"/><rect id="b-22-2" class="brick l3" data-alive="1" x="396" y="112" width="10" height="10" rx="2" ry="2"/><rect id="b-22-3" class="brick l4" data-alive="1" x="396" y="125" width="10" height="10" rx="2" ry="2"/><rect id="b-22-4" class="brick l2" data-alive="1" x="396" y="138" width="10" height="10" rx="2" ry="2"/><rect id="b-22-5" class="brick l0" data-alive="0" x="396" y="151" width="10" height="10" rx="2" ry="2"/><rect id="b-22-6" class="brick l0" data-alive="0" x="396" y="164" width="10" height="10" rx="2" ry="2"/><rect id="b-23-0" class="brick l0" data-alive="0" x="409" y="86" width="10" height="10" rx="2" ry="2"/><rect id="b-23-1" class="brick l2" data-alive="1" x="409" y="99" width="10" height="10" rx="2" ry="2"/><rect id="b-23-2" class="brick l3" data-alive="1" x="409" y="112" width="10" height="10" rx="2" ry="2"/><rect id="b-23-3" class="brick l2" data-alive="1" x="409" y="125" width="10" height="10" rx="2" ry="2"/><rect id="b-23-4" class="brick l0" data-alive="0" x="409" y="138" width="10" height="10" rx="2" ry="2"/><rect id="b-23-5" class="brick l0" data-alive="0" x="409" y="151" width="10" height="10" rx="2" ry="2"/><rect id="b-23-6" class="brick l0" data-alive="0" x="409" y="164" width="10" height="10" rx="2" ry="2"/><rect id="b-24-0" class="brick l0" data-alive="0" x="422" y="86" width="10" height="10" rx="2" ry="2"/><rect id="b-24-1" class="brick l1" data-alive="1" x="422" y="99" width="10" height="10" rx="2" ry="2"/><rect id="b-24-2" class="brick l1" data-alive="1" x="422" y="112" width="10" height="10" rx="2" ry="2"/><rect id="b-24-3" class="brick l2" data-alive="1" x="422" y="125" width="10" height="10" rx="2" ry="2"/><rect id="b-24-4" class="brick l0" data-alive="0" x="422" y="138" width="10" height="10" rx="2" ry="2"/><rect id="b-24-5" class="brick l0" data-alive="0" x="422" y="151" width="10" height="10" rx="2" ry="2"/><rect id="b-24-6" class="brick l0" data-alive="0" x="422" y="164" width="10" height="10" rx="2" ry="2"/><rect id="b-25-0" class="brick l0" data-alive="0" x="435" y="86" width="10" height="10" rx="2" ry="2"/><rect id="b-25-1" class="brick l2" data-alive="1" x="435" y="99" width="10" height="10" rx="2" ry="2"/><rect id="b-25-2" class="brick l4" data-alive="1" x="435" y="112" width="10" height="10" rx="2" ry="2"/><rect id="b-25-3" class="brick l2" data-alive="1" x="435" y="125" width="10" height="10" rx="2" ry="2"/><rect id="b-25-4" class="brick l0" data-alive="0" x="435" y="138" width="10" height="10" rx="2" ry="2"/><rect id="b-25-5" class="brick l0" data-alive="0" x="435" y="151" width="10" height="10" rx="2" ry="2"/><rect id="b-25-6" class="brick l0" data-alive="0" x="435" y="164" width="10" height="10" rx="2" ry="2"/><rect id="b-26-0" class="brick l0" data-alive="0" x="448" y="86" width="10" height="10" rx="2" ry="2"/><rect id="b-26-1" class="brick l1" data-alive="1" x="448" y="99" width="10" height="10" rx="2" ry="2"/><rect id="b-26-2" class="brick l2" data-alive="1" x="448" y="112" width="10" height="10" rx="2" ry="2"/><rect id="b-26-3" class="brick l3" data-alive="1" x="448" y="125" width="10" height="10" rx="2" ry="2"/><rect id="b-26-4" class="brick l0" data-alive="0" x="448" y="138" width="10" height="10" rx="2" ry="2"/><rect id="b-26-5" class="brick l0" data-alive="0" x="448" y="151" width="10" height="10" rx="2" ry="2"/><rect id="b-26-6" class="brick l0" data-alive="0" x="448" y="164" width="10" height="10" rx="2" ry="2"/><rect id="b-27-0" class="brick l0" data-alive="0" x="461" y="86" width="10" height="10" rx="2" ry="2"/><rect id="b-27-1" class="brick l1" data-alive="1" x="461" y="99" width="10" height="10" rx="2" ry="2"/><rect id="b-27-2" class="brick l3" data-alive="1" x="461" y="112" width="10" height="10" rx="2" ry="2"/><rect id="b-27-3" class="brick l4" data-alive="1" x="461" y="125" width="10" height="10" rx="2" ry="2"/><rect id="b-27-4" class="brick l0" data-alive="0" x="461" y="138" width="10" height="10" rx="2" ry="2"/><rect id="b-27-5" class="brick l0" data-alive="0" x="461" y="151" width="10" height="10" rx="2" ry="2"/><rect id="b-27-6" class="brick l0" data-alive="0" x="461" y="164" width="10" height="10" rx="2" ry="2"/><rect id="b-28-0" class="brick l0" data-alive="0" x="474" y="86" width="10" height="10" rx="2" ry="2"/><rect id="b-28-1" class="brick l2" data-alive="1" x="474" y="99" width="10" height="10" rx="2" ry="2"/><rect id="b-28-2" class="brick l3" data-alive="1" x="474" y="112" width="10" height="10" rx="2" ry="2"/><rect id="b-28-3" class="brick l2" data-alive="1" x="474" y="125" width="10" height="10" rx="2" ry="2"/><rect id="b-28-4" class="brick l0" data-alive="0" x="474" y="138" width="10" height="10" rx="2" ry="2"/><rect id="b-28-5" class="brick l0" data-alive="0" x="474" y="151" width="10" height="10" rx="2" ry="2"/><rect id="b-28-6" class="brick l0" data-alive="0" x="474" y="164" width="10" height="10" rx="2" ry="2"/><rect id="b-29-0" class="brick l0" data-alive="0" x="487" y="86" width="10" height="10" rx="2" ry="2"/><rect id="b-29-1" class="brick l2" data-alive="1" x="487" y="99" width="10" height="10" rx="2" ry="2"/><rect id="b-29-2" class="brick l3" data-alive="1" x="487" y="112" width="10" height="10" rx="2" ry="2"/><rect id="b-29-3" class="brick l2" data-alive="1" x="487" y="125" width="10" height="10" rx="2" ry="2"/><rect id="b-29-4" class="brick l0" data-alive="0" x="487" y="138" width="10" height="10" rx="2" ry="2"/><rect id="b-29-5" class="brick l0" data-alive="0" x="487" y="151" width="10" height="10" rx="2" ry="2"/><rect id="b-29-6" class="brick l0" data-alive="0" x="487" y="164" width="10" height="10" rx="2" ry="2"/><rect id="b-30-0" class="brick l0" data-alive="0" x="500" y="86" width="10" height="10" rx="2" ry="2"/><rect id="b-30-1" class="brick l4" data-alive="1" x="500" y="99" width="10" height="10" rx="2" ry="2"/><rect id="b-30-2" class="brick l1" data-alive="1" x="500" y="112" width="10" height="10" rx="2" ry="2"/><rect id="b-30-3" class="brick l3" data-alive="1" x="500" y="125" width="10" height="10" rx="2" ry="2"/><rect id="b-30-4" class="brick l0" data-alive="0" x="500" y="138" width="10" height="10" rx="2" ry="2"/><rect id="b-30-5" class="brick l0" data-alive="0" x="500" y="151" width="10" height="10" rx="2" ry="2"/><rect id="b-30-6" class="brick l0" data-alive="0" x="500" y="164" width="10" height="10" rx="2" ry="2"/><rect id="b-31-0" class="brick l0" data-alive="0" x="513" y="86" width="10" height="10" rx="2" ry="2"/><rect id="b-31-1" class="brick l1" data-alive="1" x="513" y="99" width="10" height="10" rx="2" ry="2"/><rect id="b-31-2" class="brick l4" data-alive="1" x="513" y="112" width="10" height="10" rx="2" ry="2"/><rect id="b-31-3" class="brick l3" data-alive="1" x="513" y="125" width="10" height="10" rx="2" ry="2"/><rect id="b-31-4" class="brick l0" data-alive="0" x="513" y="138" width="10" height="10" rx="2" ry="2"/><rect id="b-31-5" class="brick l0" data-alive="0" x="513" y="151" width="10" height="10" rx="2" ry="2"/><rect id="b-31-6" class="brick l0" data-alive="0" x="513" y="164" width="10" height="10" rx="2" ry="2"/><rect id="b-32-0" class="brick l0" data-alive="0" x="526" y="86" width="10" height="10" rx="2" ry="2"/><rect id="b-32-1" class="brick l2" data-alive="1" x="526" y="99" width="10" height="10" rx="2" ry="2"/><rect id="b-32-2" class="brick l2" data-alive="1" x="526" y="112" width="10" height="10" rx="2" ry="2"/><rect id="b-32-3" class="brick l2" data-alive="1" x="526" y="125" width="10" height="10" rx="2" ry="2"/><rect id="b-32-4" class="brick l0" data-alive="0" x="526" y="138" width="10" height="10" rx="2" ry="2"/><rect id="b-32-5" class="brick l0" data-alive="0" x="526" y="151" width="10" height="10" rx="2" ry="2"/><rect id="b-32-6" class="brick l0" data-alive="0" x="526" y="164" width="10" height="10" rx="2" ry="2"/><rect id="b-33-0" class="brick l0" data-alive="0" x="539" y="86" width="10" height="10" rx="2" ry="2"/><rect id="b-33-1" class="brick l4" data-alive="1" x="539" y="99" width="10" height="10" rx="2" ry="2"/><rect id="b-33-2" class="brick l3" data-alive="1" x="539" y="112" width="10" height="10" rx="2" ry="2"/><rect id="b-33-3" class="brick l3" data-alive="1" x="539" y="125" width="10" height="10" rx="2" ry="2"/><rect id="b-33-4" class="brick l0" data-alive="0" x="539" y="138" width="10" height="10" rx="2" ry="2"/><rect id="b-33-5" class="brick l0" data-alive="0" x="539" y="151" width="10" height="10" rx="2" ry="2"/><rect id="b-33-6" class="brick l0" data-alive="0" x="539" y="164" width="10" height="10" rx="2" ry="2"/><rect id="b-34-0" class="brick l0" data-alive="0" x="552" y="86" width="10" height="10" rx="2" ry="2"/><rect id="b-34-1" class="brick l2" data-alive="1" x="552" y="99" width="10" height="10" rx="2" ry="2"/><rect id="b-34-2" class="brick l2" data-alive="1" x="552" y="112" width="10" height="10" rx="2" ry="2"/><rect id="b-34-3" class="brick l3" data-alive="1" x="552" y="125" width="10" height="10" rx="2" ry="2"/><rect id="b-34-4" class="brick l0" data-alive="0" x="552" y="138" width="10" height="10" rx="2" ry="2"/><rect id="b-34-5" class="brick l0" data-alive="0" x="552" y="151" width="10" height="10" rx="2" ry="2"/><rect id="b-34-6" class="brick l0" data-alive="0" x="552" y="164" width="10" height="10" rx="2" ry="2"/><rect id="b-35-0" class="brick l0" data-alive="0" x="565" y="86" width="10" height="10" rx="2" ry="2"/><rect id="b-35-1" class="brick l2" data-alive="1" x="565" y="99" width="10" height="10" rx="2" ry="2"/><rect id="b-35-2" class="brick l3" data-alive="1" x="565" y="112" width="10" height="10" rx="2" ry="2"/><rect id="b-35-3" class="brick l3" data-alive="1" x="565" y="125" width="10" height="10" rx="2" ry="2"/><rect id="b-35-4" class="brick l0" data-alive="0" x="565" y="138" width="10" height="10" rx="2" ry="2"/><rect id="b-35-5" class="brick l0" data-alive="0" x="565" y="151" width="10" height="10" rx="2" ry="2"/><rect id="b-35-6" class="brick l0" data-alive="0" x="565" y="164" width="10" height="10" rx="2" ry="2"/><rect id="b-36-0" class="brick l0" data-alive="0" x="578" y="86" width="10" height="10" rx="2" ry="2"/><rect id="b-36-1" class="brick l3" data-alive="1" x="578" y="99" width="10" height="10" rx="2" ry="2"/><rect id="b-36-2" class="brick l3" data-alive="1" x="578" y="112" width="10" height="10" rx="2" ry="2"/><rect id="b-36-3" class="brick l4" data-alive="1" x="578" y="125" width="10" height="10" rx="2" ry="2"/><rect id="b-36-4" class="brick l0" data-alive="0" x="578" y="138" width="10" height="10" rx="2" ry="2"/><rect id="b-36-5" class="brick l0" data-alive="0" x="578" y="151" width="10" height="10" rx="2" ry="2"/><rect id="b-36-6" class="brick l0" data-alive="0" x="578" y="164" width="10" height="10" rx="2" ry="2"/><rect id="b-37-0" class="brick l0" data-alive="0" x="591" y="86" width="10" height="10" rx="2" ry="2"/><rect id="b-37-1" class="brick l3" data-alive="1" x="591" y="99" width="10" height="10" rx="2" ry="2"/><rect id="b-37-2" class="brick l4" data-alive="1" x="591" y="112" width="10" height="10" rx="2" ry="2"/><rect id="b-37-3" class="brick l2" data-alive="1" x="591" y="125" width="10" height="10" rx="2" ry="2"/><rect id="b-37-4" class="brick l1" data-alive="1" x="591" y="138" width="10" height="10" rx="2" ry="2"/><rect id="b-37-5" class="brick l0" data-alive="0" x="591" y="151" width="10" height="10" rx="2" ry="2"/><rect id="b-37-6" class="brick l0" data-alive="0" x="591" y="164" width="10" height="10" rx="2" ry="2"/><rect id="b-38-0" class="brick l0" data-alive="0" x="604" y="86" width="10" height="10" rx="2" ry="2"/><rect id="b-38-1" class="brick l4" data-alive="1" x="604" y="99" width="10" height="10" rx="2" ry="2"/><rect id="b-38-2" class="brick l1" data-alive="1" x="604" y="112" width="10" height="10" rx="2" ry="2"/><rect id="b-38-3" class="brick l2" data-alive="1" x="604" y="125" width="10" height="10" rx="2" ry="2"/><rect id="b-38-4" class="brick l1" data-alive="1" x="604" y="138" width="10" height="10" rx="2" ry="2"/><rect id="b-38-5" class="brick l1" data-alive="1" x="604" y="151" width="10" height="10" rx="2" ry="2"/><rect id="b-38-6" class="brick l0" data-alive="0" x="604" y="164" width="10" height="10" rx="2" ry="2"/><rect id="b-39-0" class="brick l1" data-alive="1" x="617" y="86" width="10" height="10" rx="2" ry="2"/><rect id="b-39-1" class="brick l2" data-alive="1" x="617" y="99" width="10" height="10" rx="2" ry="2"/><rect id="b-39-2" class="brick l4" data-alive="1" x="617" y="112" width="10" height="10" rx="2" ry="2"/><rect id="b-39-3" class="brick l1" data-alive="1" x="617" y="125" width="10" height="10" rx="2" ry="2"/><rect id="b-39-4" class="brick l0" data-alive="0" x="617" y="138" width="10" height="10" rx="2" ry="2"/><rect id="b-39-5" class="brick l0" data-alive="0" x="617" y="151" width="10" height="10" rx="2" ry="2"/><rect id="b-39-6" class="brick l0" data-alive="0" x="617" y="164" width="10" height="10" rx="2" ry="2"/><rect id="b-40-0" class="brick l1" data-alive="1" x="630" y="86" width="10" height="10" rx="2" ry="2"/><rect id="b-40-1" class="brick l2" data-alive="1" x="630" y="99" width="10" height="10" rx="2" ry="2"/><rect id="b-40-2" class="brick l1" data-alive="1" x="630" y="112" width="10" height="10" rx="2" ry="2"/><rect id="b-40-3" class="brick l2" data-alive="1" x="630" y="125" width="10" height="10" rx="2" ry="2"/><rect id="b-40-4" class="brick l1" data-alive="1" x="630" y="138" width="10" height="10" rx="2" ry="2"/><rect id="b-40-5" class="brick l0" data-alive="0" x="630" y="151" width="10" height="10" rx="2" ry="2"/><rect id="b-40-6" class="brick l0" data-alive="0" x="630" y="164" width="10" height="10" rx="2" ry="2"/><rect id="b-41-0" class="brick l0" data-alive="0" x="643" y="86" width="10" height="10" rx="2" ry="2"/><rect id="b-41-1" class="brick l2" data-alive="1" x="643" y="99" width="10" height="10" rx="2" ry="2"/><rect id="b-41-2" class="brick l3" data-alive="1" x="643" y="112" width="10" height="10" rx="2" ry="2"/><rect id="b-41-3" class="brick l3" data-alive="1" x="643" y="125" width="10" height="10" rx="2" ry="2"/><rect id="b-41-4" class="brick l0" data-alive="0" x="643" y="138" width="10" height="10" rx="2" ry="2"/><rect id="b-41-5" class="brick l0" data-alive="0" x="643" y="151" width="10" height="10" rx="2" ry="2"/><rect id="b-41-6" class="brick l0" data-alive="0" x="643" y="164" width="10" height="10" rx="2" ry="2"/><rect id="b-42-0" class="brick l3" data-alive="1" x="656" y="86" width="10" height="10" rx="2" ry="2"/><rect id="b-42-1" class="brick l4" data-alive="1" x="656" y="99" width="10" height="10" rx="2" ry="2"/><rect id="b-42-2" class="brick l2" data-alive="1" x="656" y="112" width="10" height="10" rx="2" ry="2"/><rect id="b-42-3" class="brick l4" data-alive="1" x="656" y="125" width="10" height="10" rx="2" ry="2"/><rect id="b-42-4" class="brick l3" data-alive="1" x="656" y="138" width="10" height="10" rx="2" ry="2"/><rect id="b-42-5" class="brick l0" data-alive="0" x="656" y="151" width="10" height="10" rx="2" ry="2"/><rect id="b-42-6" class="brick l0" data-alive="0" x="656" y="164" width="10" height="10" rx="2" ry="2"/><rect id="b-43-0" class="brick l2" data-alive="1" x="669" y="86" width="10" height="10" rx="2" ry="2"/><rect id="b-43-1" class="brick l4" data-alive="1" x="669" y="99" width="10" height="10" rx="2" ry="2"/><rect id="b-43-2" class="brick l3" data-alive="1" x="669" y="112" width="10" height="10" rx="2" ry="2"/><rect id="b-43-3" class="brick l4" data-alive="1" x="669" y="125" width="10" height="10" rx="2" ry="2"/><rect id="b-43-4" class="brick l3" data-alive="1" x="669" y="138" width="10" height="10" rx="2" ry="2"/><rect id="b-43-5" class="brick l0" data-alive="0" x="669" y="151" width="10" height="10" rx="2" ry="2"/><rect id="b-43-6" class="brick l0" data-alive="0" x="669" y="164" width="10" height="10" rx="2" ry="2"/><rect id="b-44-0" class="brick l3" data-alive="1" x="682" y="86" width="10" height="10" rx="2" ry="2"/><rect id="b-44-1" class="brick l3" data-alive="1" x="682" y="99" width="10" height="10" rx="2" ry="2"/><rect id="b-44-2" class="brick l3" data-alive="1" x="682" y="112" width="10" height="10" rx="2" ry="2"/><rect id="b-44-3" class="brick l4" data-alive="1" x="682" y="125" width="10" height="10" rx="2" ry="2"/><rect id="b-44-4" class="brick l3" data-alive="1" x="682" y="138" width="10" height="10" rx="2" ry="2"/><rect id="b-44-5" class="brick l0" data-alive="0" x="682" y="151" width="10" height="10" rx="2" ry="2"/><rect id="b-44-6" class="brick l0" data-alive="0" x="682" y="164" width="10" height="10" rx="2" ry="2"/><rect id="b-45-0" class="brick l3" data-alive="1" x="695" y="86" width="10" height="10" rx="2" ry="2"/><rect id="b-45-1" class="brick l4" data-alive="1" x="695" y="99" width="10" height="10" rx="2" ry="2"/><rect id="b-45-2" class="brick l4" data-alive="1" x="695" y="112" width="10" height="10" rx="2" ry="2"/><rect id="b-45-3" class="brick l3" data-alive="1" x="695" y="125" width="10" height="10" rx="2" ry="2"/><rect id="b-45-4" class="brick l4" data-alive="1" x="695" y="138" width="10" height="10" rx="2" ry="2"/><rect id="b-45-5" class="brick l3" data-alive="1" x="695" y="151" width="10" height="10" rx="2" ry="2"/><rect id="b-45-6" class="brick l0" data-alive="0" x="695" y="164" width="10" height="10" rx="2" ry="2"/><rect id="b-46-0" class="brick l3" data-alive="1" x="708" y="86" width="10" height="10" rx="2" ry="2"/><rect id="b-46-1" class="brick l4" data-alive="1" x="708" y="99" width="10" height="10" rx="2" ry="2"/><rect id="b-46-2" class="brick l3" data-alive="1" x="708" y="112" width="10" height="10" rx="2" ry="2"/><rect id="b-46-3" class="brick l3" data-alive="1" x="708" y="125" width="10" height="10" rx="2" ry="2"/><rect id="b-46-4" class="brick l4" data-alive="1" x="708" y="138" width="10" height="10" rx="2" ry="2"/><rect id="b-46-5" class="brick l0" data-alive="0" x="708" y="151" width="10" height="10" rx="2" ry="2"/><rect id="b-46-6" class="brick l0" data-alive="0" x="708" y="164" width="10" height="10" rx="2" ry="2"/><rect id="b-47-0" class="brick l3" data-alive="1" x="721" y="86" width="10" height="10" rx="2" ry="2"/><rect id="b-47-1" class="brick l3" data-alive="1" x="721" y="99" width="10" height="10" rx="2" ry="2"/><rect id="b-47-2" class="brick l3" data-alive="1" x="721" y="112" width="10" height="10" rx="2" ry="2"/><rect id="b-47-3" class="brick l3" data-alive="1" x="721" y="125" width="10" height="10" rx="2" ry="2"/><rect id="b-47-4" class="brick l3" data-alive="1" x="721" y="138" width="10" height="10" rx="2" ry="2"/><rect id="b-47-5" class="brick l0" data-alive="0" x="721" y="151" width="10" height="10" rx="2" ry="2"/><rect id="b-47-6" class="brick l0" data-alive="0" x="721" y="164" width="10" height="10" rx="2" ry="2"/><rect id="b-48-0" class="brick l3" data-alive="1" x="734" y="86" width="10" height="10" rx="2" ry="2"/><rect id="b-48-1" class="brick l3" data-alive="1" x="734" y="99" width="10" height="10" rx="2" ry="2"/><rect id="b-48-2" class="brick l3" data-alive="1" x="734" y="112" width="10" height="10" rx="2" ry="2"/><rect id="b-48-3" class="brick l3" data-alive="1" x="734" y="125" width="10" height="10" rx="2" ry="2"/><rect id="b-48-4" class="brick l2" data-alive="1" x="734" y="138" width="10" height="10" rx="2" ry="2"/><rect id="b-48-5" class="brick l0" data-alive="0" x="734" y="151" width="10" height="10" rx="2" ry="2"/><rect id="b-48-6" class="brick l2" data-alive="1" x="734" y="164" width="10" height="10" rx="2" ry="2"/><rect id="b-49-0" class="brick l3" data-alive="1" x="747" y="86" width="10" height="10" rx="2" ry="2"/><rect id="b-49-1" class="brick l4" data-alive="1" x="747" y="99" width="10" height="10" rx="2" ry="2"/><rect id="b-49-2" class="brick l3" data-alive="1" x="747" y="112" width="10" height="10" rx="2" ry="2"/><rect id="b-49-3" class="brick l3" data-alive="1" x="747" y="125" width="10" height="10" rx="2" ry="2"/><rect id="b-49-4" class="brick l4" data-alive="1" x="747" y="138" width="10" height="10" rx="2" ry="2"/><rect id="b-49-5" class="brick l0" data-alive="0" x="747" y="151" width="10" height="10" rx="2" ry="2"/><rect id="b-49-6" class="brick l0" data-alive="0" x="747" y="164" width="10" height="10" rx="2" ry="2"/><rect id="b-50-0" class="brick l3" data-alive="1" x="760" y="86" width="10" height="10" rx="2" ry="2"/><rect id="b-50-1" class="brick l3" data-alive="1" x="760" y="99" width="10" height="10" rx="2" ry="2"/><rect id="b-50-2" class="brick l3" data-alive="1" x="760" y="112" width="10" height="10" rx="2" ry="2"/><rect id="b-50-3" class="brick l3" data-alive="1" x="760" y="125" width="10" height="10" rx="2" ry="2"/><rect id="b-50-4" class="brick l4" data-alive="1" x="760" y="138" width="10" height="10" rx="2" ry="2"/><rect id="b-50-5" class="brick l0" data-alive="0" x="760" y="151" width="10" height="10" rx="2" ry="2"/><rect id="b-50-6" class="brick l3" data-alive="1" x="760" y="164" width="10" height="10" rx="2" ry="2"/><rect id="b-51-0" class="brick l1" data-alive="1" x="773" y="86" width="10" height="10" rx="2" ry="2"/><rect id="b-51-1" class="brick l2" data-alive="1" x="773" y="99" width="10" height="10" rx="2" ry="2"/><rect id="b-51-2" class="brick l1" data-alive="1" x="773" y="112" width="10" height="10" rx="2" ry="2"/><rect id="b-51-3" class="brick l2" data-alive="1" x="773" y="125" width="10" height="10" rx="2" ry="2"/><rect id="b-51-4" class="brick l1" data-alive="1" x="773" y="138" width="10" height="10" rx="2" ry="2"/><rect id="b-51-5" class="brick l0" data-alive="0" x="773" y="151" width="10" height="10" rx="2" ry="2"/><rect id="b-51-6" class="brick l0" data-alive="0" x="773" y="164" width="10" height="10" rx="2" ry="2"/><rect id="b-52-0" class="brick l0" data-alive="0" x="786" y="86" width="10" height="10" rx="2" ry="2"/><rect id="b-52-1" class="brick l1" data-alive="1" x="786" y="99" width="10" height="10" rx="2" ry="2"/><rect id="b-52-2" class="brick l2" data-alive="1" x="786" y="112" width="10" height="10" rx="2" ry="2"/><rect id="b-52-3" class="brick l1" data-alive="1" x="786" y="125" width="10" height="10" rx="2" ry="2"/><rect id="b-52-4" class="brick l1" data-alive="1" x="786" y="138" width="10" height="10" rx="2" ry="2"/><rect id="b-52-5" class="brick l0" data-alive="0" x="786" y="151" width="10" height="10" rx="2" ry="2"/><rect id="b-52-6" class="brick l0" data-alive="0" x="786" y="164" width="10" height="10" rx="2" ry="2"/>
  </g>

  <rect id="paddle" class="paddle" x="706" y="242" width="78" height="8" rx="4" ry="4"/>
  <circle id="ball" class="ball" cx="744" cy="234" r="5.5"/>

  <script><![CDATA[
  (function() {
    var ball = document.getElementById('ball');
    var paddle = document.getElementById('paddle');
    var bricks = Array.prototype.slice.call(document.querySelectorAll('#grid .brick'));

    var gridX = 110, gridY = 86, gridW = 686, gridH = 88;
    var paddleY = 242;
    var paddleW = 78, paddleH = 8;
    var r = 5.5;

    var x = 744;
    var y = 234;
    var vx = -2.65;
    var vy = -2.4;

    var paddleX = 706;
    var targetPaddleX = paddleX;
    var paused = false;

    var samePatternFrames = 0;
    var lastSignature = '';

    function sync() {
      ball.setAttribute('cx', x);
      ball.setAttribute('cy', y);
      paddle.setAttribute('x', paddleX);
      paddle.setAttribute('y', paddleY);
    }

    function clamp(v, a, b) {
      return Math.max(a, Math.min(b, v));
    }

    function rectHit(rx, ry, rw, rh) {
      var nx = clamp(x, rx, rx + rw);
      var ny = clamp(y, ry, ry + rh);
      var dx = x - nx;
      var dy = y - ny;
      return dx * dx + dy * dy <= r * r;
    }

    function reflectBrick(rx, ry, rw, rh) {
      var prevX = x - vx;
      var prevY = y - vy;
      var fromLeft = prevX + r <= rx;
      var fromRight = prevX - r >= rx + rw;
      var fromTop = prevY + r <= ry;
      var fromBottom = prevY - r >= ry + rh;

      if (fromLeft || fromRight) vx *= -1;
      if (fromTop || fromBottom) vy *= -1;
      if (!(fromLeft || fromRight || fromTop || fromBottom)) vy *= -1;
    }

    function resetBall() {
      x = paddleX + paddleW / 2;
      y = paddleY - r - 2;
      vx = (Math.random() > 0.5 ? 1 : -1) * 2.4;
      vy = -2.5;
    }

    function frame() {
      if (paused) return;

      // Slightly imperfect paddle so it doesn't settle too fast into a loop
      targetPaddleX = clamp(x - paddleW / 2, gridX, gridX + gridW - paddleW);
      paddleX += (targetPaddleX - paddleX) * 0.09;

      x += vx;
      y += vy;

      // Walls
      if (x - r <= gridX) {
        x = gridX + r;
        vx = Math.abs(vx);
      }
      if (x + r >= gridX + gridW) {
        x = gridX + gridW - r;
        vx = -Math.abs(vx);
      }
      if (y - r <= gridY) {
        y = gridY + r;
        vy = Math.abs(vy);
      }

      // Real paddle interaction
      if (rectHit(paddleX, paddleY, paddleW, paddleH) && vy > 0) {
        y = paddleY - r - 0.5;
        var hit = ((x - paddleX) / paddleW) - 0.5;
        var spin = (Math.random() - 0.5) * 0.55;
        vx = hit * 5.9 + spin;
        vy = -(2.35 + Math.min(1.7, Math.abs(hit) * 2.0));
        if (Math.abs(vx) < 0.75) vx += (vx < 0 ? -0.55 : 0.55);
      }

      // Brick collisions
      for (var i = 0; i < bricks.length; i++) {
        var b = bricks[i];
        if (b.dataset.alive !== '1') continue;
        var rx = +b.getAttribute('x');
        var ry = +b.getAttribute('y');
        var rw = +b.getAttribute('width');
        var rh = +b.getAttribute('height');
        if (rectHit(rx, ry, rw, rh)) {
          b.dataset.alive = '0';
          b.setAttribute('class', 'brick l0');
          reflectBrick(rx, ry, rw, rh);
          break;
        }
      }

      // Anti-loop nudge
      var signature = [
        Math.round(x / 14),
        Math.round(y / 14),
        Math.round(vx * 10) / 10,
        Math.round(vy * 10) / 10
      ].join('|');

      if (signature === lastSignature) {
        samePatternFrames++;
      } else {
        samePatternFrames = 0;
        lastSignature = signature;
      }

      if (samePatternFrames > 18) {
        vx += (Math.random() > 0.5 ? 0.22 : -0.22);
        vy += (Math.random() > 0.5 ? 0.08 : -0.08);
        samePatternFrames = 0;
      }

      // Miss -> reset
      if (y - r > paddleY + 28) {
        resetBall();
      }

      sync();
      requestAnimationFrame(frame);
    }

    document.documentElement.addEventListener('click', function() {
      paused = !paused;
      if (!paused) requestAnimationFrame(frame);
    });

    sync();
    requestAnimationFrame(frame);
  })();
  ]]></script>
</svg>
