<svg role="img" viewBox="0 0 256 256" xmlns="http://www.w3.org/2000/svg" aria-labelledby="alpitourTitle">
  <title id="alpitourTitle">Alpitour</title>
  <path
    fill="#1692cf"
    fill-rule="evenodd"
    d="M128 16c61.86 0 112 50.14 112 112s-50.14 112-112 112S16 189.86 16 128 66.14 16 128 16zm-32.5 58.5c21.3 0 36.7 7.7 51.7 24.8 7.9-8.3 17-14.9 27.3-19.8 9-4.3 18.8-7.4 29.5-9.2-22.6-20.1-47.9-30.3-76.2-30.3-26 0-49.3 8.7-69.8 26.1-4.4 3.7-8.7 7.9-12.8 12.5 8.8-1.5 18.4-2.2 28.8-2.2 8.5-1.3 15.7-1.9 21.5-1.9zm-56.6 46.7c7-.8 13.8-1.5 20.5-2.1 5.9-.5 11.6-.8 17.2-.8 24.8 0 40.7 3.3 47.5 10-3.6-8.5-8.8-15.5-15.5-21.1-10.6-8.8-24.4-13.2-41.6-13.2-12.1 0-22.7 1.5-31.8 4.5-6.2 2-12.3 5-18.4 9 8.7.7 16.1 2 22.1 3.7zm176.6 0c-7-.8-13.8-1.5-20.5-2.1-5.9-.5-11.6-.8-17.2-.8-24.8 0-40.7 3.3-47.5 10 3.6-8.5 8.8-15.5 15.5-21.1 10.6-8.8 24.4-13.2 41.6-13.2 12.1 0 22.7 1.5 31.8 4.5 6.2 2 12.3 5 18.4 9-8.7.7-16.1 2-22.1 3.7z"
    clip-rule="evenodd"
  />
</svg>

