<svg xmlns="http://www.w3.org/2000/svg" id="Слой_1" data-name="Слой 1" viewBox="0 0 582 582"><defs><style>.cls-1{opacity:1;}.cls-2{fill:#fff;}.cls-3{font-size:92.37px;fill:#ed1c24;}.cls-3,.cls-4{font-family:MicrosoftYaHeiUILight, Microsoft YaHei UI;}.cls-4{font-size:321.51px;}</style></defs><g class="cls-1"><rect class="cls-2" x="0.5" y="0.5" width="581" height="581" rx="129.33"></rect><path d="M1093.17,245A128.82,128.82,0,0,1,1222,373.83V696.17A128.82,128.82,0,0,1,1093.17,825H770.83A128.82,128.82,0,0,1,642,696.17V373.83A128.82,128.82,0,0,1,770.83,245h322.34m0-1H770.83A129.83,129.83,0,0,0,641,373.83V696.17A129.83,129.83,0,0,0,770.83,826h322.34A129.83,129.83,0,0,0,1223,696.17V373.83A129.83,129.83,0,0,0,1093.17,244Z" transform="translate(-641 -244)"></path></g><text class="cls-3" transform="translate(129.7 130.83)">Monday</text><text class="cls-4" transform="translate(139.49 471.08)">28</text></svg>