<svg version="1.1" xmlns="http://www.w3.org/2000/svg" width="512" height="512">
  <path d="M0 0 C0.70404753 -0.00350607 1.40809506 -0.00701215 2.13347736 -0.01062447 C4.49851107 -0.01994675 6.863299 -0.01501307 9.22834301 -0.01015663 C10.93875094 -0.01389248 12.64915716 -0.01849373 14.35956067 -0.02388728 C19.06449167 -0.03614083 23.76935169 -0.03585404 28.47429502 -0.03349853 C33.54667504 -0.03309095 38.61903211 -0.04412379 43.69140148 -0.05361366 C53.6309482 -0.0702375 63.57047121 -0.07572383 73.51003066 -0.07683842 C81.58812702 -0.07778823 89.66621555 -0.08189517 97.74430943 -0.08823967 C120.63932164 -0.10585578 143.5343151 -0.11507795 166.42933414 -0.11357872 C168.28134568 -0.11345885 168.28134568 -0.11345885 170.1707716 -0.11333656 C172.02504031 -0.11321392 172.02504031 -0.11321392 173.91676899 -0.1130888 C193.95407764 -0.11227578 213.99131114 -0.13141667 234.02859805 -0.1596133 C254.59502603 -0.18832653 275.16141734 -0.20215445 295.72786587 -0.20042574 C307.27746833 -0.19976131 318.826992 -0.20527711 330.37657642 -0.22678185 C340.2097249 -0.24497309 350.04275888 -0.24935788 359.87591688 -0.235763 C364.89360811 -0.229223 369.91107957 -0.22915339 374.92875004 -0.2464695 C379.5224705 -0.2621596 384.11579618 -0.2593782 388.70950677 -0.24190123 C390.37099781 -0.23882237 392.03251801 -0.242497 393.69397465 -0.25362138 C403.22312637 -0.31319677 410.67288695 -0.34597994 418.16808605 6.22211266 C418.70691418 6.87308922 419.2457423 7.52406578 419.80089855 8.19476891 C420.35519543 8.84316734 420.9094923 9.49156578 421.48058605 10.15961266 C424.16955301 14.06224849 425.17541501 17.57250814 425.18316746 22.2854948 C425.18961635 23.2798008 425.19606524 24.27410679 425.20270956 25.29854327 C425.19806375 26.9260555 425.19806375 26.9260555 425.19332409 28.58644676 C425.1978552 29.74480323 425.20238631 30.9031597 425.20705473 32.09661788 C425.21752431 35.30796622 425.21902468 38.51917373 425.21666598 41.73053372 C425.21625773 45.19554188 425.22729778 48.66051667 425.23678112 52.12550926 C425.25339038 58.91274339 425.25889064 65.69994278 425.26000588 72.48719553 C425.26095641 78.00474767 425.26506695 83.52228836 425.27140713 89.03983688 C425.2890195 104.68563472 425.29824603 120.33140512 425.29674618 135.97721294 C425.29666627 136.82059088 425.29658635 137.66396882 425.29650402 138.53290367 C425.29642226 139.37731228 425.2963405 140.22172088 425.29625626 141.09171762 C425.29544341 154.77567904 425.31458085 168.45953038 425.34278075 182.14345995 C425.37151262 196.19649894 425.38532088 210.24948425 425.3835932 224.30255336 C425.38292939 232.19128708 425.38841759 240.07990541 425.4099493 247.96861267 C425.42816513 254.68547454 425.43250523 261.4021687 425.41893046 268.11904458 C425.41240267 271.54491363 425.41227622 274.97046097 425.42963696 278.39629936 C425.4450461 282.11353431 425.43580844 285.8299237 425.42037487 289.54714012 C425.430662 290.62545611 425.44094912 291.70377209 425.45154798 292.81476432 C425.38220864 300.36967496 424.07446617 305.66427127 418.9610548 311.49945641 C418.31007824 312.03828453 417.65910168 312.57711266 416.98839855 313.13226891 C416.34000011 313.68656578 415.69160168 314.24086266 415.0235548 314.81195641 C410.3869098 318.00666525 406.42981402 318.50827317 400.8517971 318.51453781 C400.14774958 318.51804389 399.44370205 318.52154996 398.71831974 318.52516228 C396.35328603 318.53448457 393.98849811 318.52955088 391.62345409 318.52469444 C389.91304616 318.52843029 388.20263994 318.53303154 386.49223644 318.53842509 C381.78730543 318.55067864 377.08244541 318.55039185 372.37750208 318.54803634 C367.30512207 318.54762877 362.23276499 318.5586616 357.16039562 318.56815147 C347.2208489 318.58477531 337.2813259 318.59026164 327.34176644 318.59137623 C319.26367008 318.59232604 311.18558156 318.59643298 303.10748768 318.60277748 C280.21247546 318.62039359 257.31748201 318.62961576 234.42246296 318.62811653 C232.57045142 318.62799666 232.57045142 318.62799666 230.68102551 318.62787437 C228.8267568 318.62775173 228.8267568 318.62775173 226.93502811 318.62762661 C206.89771946 318.62681359 186.86048597 318.64595448 166.82319906 318.67415111 C146.25677108 318.70286435 125.69037977 318.71669226 105.12393123 318.71496356 C93.57432878 318.71429912 82.0248051 318.71981492 70.47522068 318.74131966 C60.64207221 318.75951091 50.80903822 318.76389569 40.97588023 318.75030081 C35.95818899 318.74376081 30.94071754 318.7436912 25.92304707 318.76100731 C21.3293266 318.77669741 16.73600093 318.77391602 12.14229033 318.75643905 C10.4807993 318.75336018 8.8192791 318.75703481 7.15782245 318.7681592 C-2.37132926 318.82773458 -9.82108984 318.86051775 -17.31628895 312.29242516 C-17.85511707 311.64144859 -18.3939452 310.99047203 -18.94910145 310.31976891 C-19.50339832 309.67137047 -20.0576952 309.02297203 -20.62878895 308.35492516 C-23.31775591 304.45228932 -24.3236179 300.94202967 -24.33137035 296.22904301 C-24.33781925 295.23473701 -24.34426814 294.24043102 -24.35091245 293.21599454 C-24.34781525 292.13098639 -24.34471804 291.04597824 -24.34152699 289.92809105 C-24.3460581 288.76973458 -24.35058921 287.61137811 -24.35525763 286.41791993 C-24.3657272 283.20657159 -24.36722758 279.99536408 -24.36486888 276.78400409 C-24.36446063 273.31899593 -24.37550068 269.85402115 -24.38498402 266.38902855 C-24.40159327 259.60179442 -24.40709353 252.81459503 -24.40820877 246.02734228 C-24.4091593 240.50979014 -24.41326985 234.99224945 -24.41961002 229.47470093 C-24.4372224 213.82890309 -24.44644893 198.18313269 -24.44494908 182.53732487 C-24.44486916 181.69394693 -24.44478925 180.85056899 -24.44470692 179.98163414 C-24.44462516 179.13722554 -24.44454339 178.29281693 -24.44445916 177.42282019 C-24.4436463 163.73885877 -24.46278375 150.05500744 -24.49098365 136.37107786 C-24.51971552 122.31803887 -24.53352377 108.26505356 -24.5317961 94.21198446 C-24.53113229 86.32325073 -24.53662049 78.4346324 -24.5581522 70.54592514 C-24.57636802 63.82906327 -24.58070813 57.11236911 -24.56713335 50.39549323 C-24.56060557 46.96962419 -24.56047912 43.54407684 -24.57783985 40.11823845 C-24.593249 36.4010035 -24.58401134 32.68461411 -24.56857777 28.96739769 C-24.57886489 27.8890817 -24.58915202 26.81076572 -24.59975088 25.69977349 C-24.53041153 18.14486285 -23.22266907 12.85026655 -18.1092577 7.01508141 C-17.45828114 6.47625328 -16.80730457 5.93742516 -16.13660145 5.38226891 C-15.48820301 4.82797203 -14.83980457 4.27367516 -14.1717577 3.70258141 C-9.5351127 0.50787256 -5.57801692 0.00626464 0 0 Z " fill="#0387CF" transform="translate(55.07410144805908,86.74273109436035)"/>
  <path d="M0 0 C2.54938804 1.27469402 2.74579613 2.49159226 4 5 C4.53625 5.53625 5.0725 6.0725 5.625 6.625 C6.07875 7.07875 6.5325 7.5325 7 8 C7 8.66 7 9.32 7 10 C7.89842621 10.40249718 7.89842621 10.40249718 8.81500244 10.81312561 C11.02562443 12.013919 12.28905363 13.13208068 13.95996094 14.98999023 C14.51911194 15.60173599 15.07826294 16.21348175 15.65435791 16.84376526 C16.25826355 17.51278366 16.86216919 18.18180206 17.484375 18.87109375 C23.45894438 25.36772054 29.60051698 31.65639106 35.890625 37.84765625 C36.73629028 38.6829184 37.58195557 39.51818054 38.45324707 40.37875366 C41.94079137 43.82181944 45.43118554 47.26177719 48.93505859 50.68823242 C51.53353115 53.23230287 54.11918104 55.7888421 56.703125 58.34765625 C57.88893158 59.49778954 57.88893158 59.49778954 59.09869385 60.67115784 C65.12420929 66.66762396 65.12420929 66.66762396 66.51855469 70.79077148 C68.14279526 74.30933481 68.37889946 74.43834111 71.69553375 75.8340044 C76.0408659 77.88105948 79.01434014 80.4573928 82.35290527 83.86515808 C82.93960511 84.44773465 83.52630494 85.03031122 84.13078356 85.63054162 C86.07791174 87.56879901 88.0104924 89.52091756 89.94335938 91.47338867 C91.34268512 92.87220524 92.74288541 94.2701474 94.14389038 95.6672821 C97.9333894 99.45137486 101.71038224 103.247728 105.48508263 107.04657531 C109.43666378 111.01947702 113.39921417 114.98140885 117.36047363 118.94465637 C124.00445853 125.59508192 130.64100377 132.25285488 137.27246094 138.91577148 C145.79633547 147.48002849 154.33171171 156.03272388 162.87099457 164.58161449 C170.20510973 171.92401501 177.53474282 179.2708848 184.86323738 186.61889482 C187.2240794 188.98581187 189.58539001 191.35226082 191.94670105 193.71870995 C195.64616413 197.42692705 199.34284892 201.13789241 203.03734207 204.85106087 C204.39748103 206.2173431 205.75847455 207.58277518 207.12035751 208.94731903 C208.97024087 210.80115805 210.81702139 212.65803094 212.66296387 214.51579285 C213.21002157 215.06266618 213.75707927 215.60953952 214.32071447 216.17298478 C218 219.88576304 218 219.88576304 218 221 C189.54542052 221.96507926 161.09281989 222.70486067 132.62500394 223.14474384 C129.23923373 223.19725266 125.85349567 223.25161619 122.46777344 223.30712891 C121.79393969 223.31814594 121.12010595 223.32916298 120.425853 223.34051387 C110.95032204 223.49928524 101.48212415 223.75825867 92.01138195 224.09684286 C-10.37422891 227.75644205 -10.37422891 227.75644205 -32.44328535 207.28329289 C-40.33619066 199.51806397 -46.79444932 190.47213386 -51.95315742 180.69707298 C-52.89841278 178.83143571 -52.89841278 178.83143571 -55 178 C-55 177.34 -55 176.68 -55 176 C-55.99 175.67 -56.98 175.34 -58 175 C-58 174.34 -58 173.68 -58 173 C-58.66 173 -59.32 173 -60 173 C-60 172.34 -60 171.68 -60 171 C-60.53625 170.79375 -61.0725 170.5875 -61.625 170.375 C-64.91978009 168.46749574 -67.59363628 165.95180616 -70 163 C-70 162.34 -70 161.68 -70 161 C-70.721875 160.835 -71.44375 160.67 -72.1875 160.5 C-76.33603985 158.28744541 -78.19957883 155.29161617 -80 151 C-80.86022142 146.98104552 -80.84766513 143.63923478 -78.9375 139.9453125 C-77.15088556 137.38237155 -75.20801159 135.20801159 -73 133 C-73.78761719 132.22285645 -74.57523438 131.44571289 -75.38671875 130.64501953 C-78.29897081 127.76888327 -81.20466779 124.88620196 -84.10839844 122.00146484 C-85.36767713 120.75226298 -86.62874236 119.50485944 -87.89160156 118.25927734 C-89.70326412 116.47178925 -91.50846839 114.67799773 -93.3125 112.8828125 C-93.88121826 112.32441681 -94.44993652 111.76602112 -95.03588867 111.19070435 C-96.3957465 109.83124115 -97.70341173 108.41993393 -99 107 C-99 106.34 -99 105.68 -99 105 C-99.5775 104.773125 -100.155 104.54625 -100.75 104.3125 C-103.5663661 102.66961977 -105.08077114 100.60466773 -107 98 C-103.11682649 98 -101.15971195 99.39723415 -97.75 101.25 C-80.48150662 110.15339824 -62.55919851 111.51460672 -44 106 C-35.44720581 103.10308584 -25.75276647 99.02673547 -19.44140625 92.3515625 C-18 91 -18 91 -16.08203125 90.63671875 C-10.31436763 88.87287415 -5.8255144 79.60136038 -2.96484375 74.44140625 C5.69530583 58.03270177 9.33579795 38.75169982 4.3125 20.5625 C2.23275183 14.23380395 -0.28286223 8.08015256 -3 2 C-2.01 1.34 -1.02 0.68 0 0 Z " fill="#037BBE" transform="translate(203,182)"/>
  <path d="M0 0 C22.59731758 -0.75324392 42.39093091 8.51425097 58.78710938 23.60742188 C64.07753413 28.75388949 68.08374364 34.77948168 72 41 C69.4837822 43.60608273 66.94865641 45.89381685 64 48 C64.39832031 48.79921875 64.79664063 49.5984375 65.20703125 50.421875 C74.47039074 69.6247516 75.83755833 88.80806998 68.93359375 109.140625 C65.2698185 118.57212563 59.80161632 129.27649649 52 136 C50.33537132 136.67173923 48.66858347 137.33814546 47 138 C45.63078307 139.0376097 44.29790951 140.1244691 43 141.25 C28.34302823 152.9560673 9.31137816 156.45193209 -9 155 C-19.59343854 153.51041768 -28.71325092 149.00949794 -38 144 C-39.00160156 143.54496094 -40.00320312 143.08992187 -41.03515625 142.62109375 C-55.87007845 134.50977265 -64.38805983 117.49826407 -69 102 C-69.18546387 101.37947754 -69.37092773 100.75895508 -69.56201172 100.11962891 C-74.44960511 82.4833084 -70.27840982 63.9047133 -61.84765625 48.1171875 C-59.2404328 43.71853145 -56.40734447 39.80820853 -53 36 C-52.34515625 35.25234375 -51.6903125 34.5046875 -51.015625 33.734375 C-39.69428962 21.58666478 -23.69635074 13.25821331 -7.0625 12.375 C-6.03672852 12.31699219 -6.03672852 12.31699219 -4.99023438 12.2578125 C-3.32720487 12.16477588 -1.66364153 12.08136213 0 12 C0 8.04 0 4.08 0 0 Z " fill="#F0F0F1" transform="translate(137,137)"/>
  <path d="M0 0 C0.67957854 -0.00085442 1.35915708 -0.00170885 2.05932891 -0.00258917 C4.34718604 -0.00424245 6.63497062 0.00127493 8.92282104 0.00672913 C10.55856321 0.00701106 12.19430551 0.00685315 13.83004761 0.00628662 C18.28021149 0.00599887 22.73034859 0.01189193 27.18050623 0.01886058 C31.82767254 0.0250979 36.47483942 0.02569822 41.12200928 0.02688599 C49.92635808 0.02999818 58.73069452 0.03821007 67.53503788 0.04823548 C77.55665731 0.05940007 87.57827733 0.06490794 97.59990144 0.06993091 C118.21910439 0.08039277 138.83829549 0.09819072 159.45748901 0.12025452 C159.45748901 8.70025452 159.45748901 17.28025452 159.45748901 26.12025452 C137.90016723 26.21282228 116.34289326 26.28421852 94.78541279 26.3275032 C84.77605235 26.3481346 74.76681761 26.37626626 64.75753784 26.42201233 C56.0341584 26.46186238 47.31086998 26.48768313 38.58740205 26.4966085 C33.96770758 26.50182635 29.34827355 26.51410218 24.72866249 26.54317474 C20.38090028 26.57031493 16.03350591 26.57870237 11.68566704 26.57268524 C10.08970262 26.57378611 8.49372597 26.58174848 6.89783478 26.59707642 C4.71835907 26.6169835 2.54027148 26.61219246 0.36076355 26.60127258 C-0.85876857 26.60495975 -2.07830069 26.60864693 -3.33478832 26.61244583 C-7.16322887 26.02501188 -8.80780004 24.80862783 -11.54251099 22.12025452 C-13.00374885 19.19777879 -12.79027248 16.56171613 -12.85501099 13.30775452 C-12.8923938 12.0844342 -12.92977661 10.86111389 -12.96829224 9.60072327 C-12.47231793 5.54647462 -11.39150818 3.97982313 -8.54251099 1.12025452 C-5.66879412 -0.31660392 -3.21286297 -0.00242297 0 0 Z " fill="#EDEDED" transform="translate(280.5425109863281,232.87974548339844)"/>
  <path d="M0 0 C23.50498897 0 43.41730308 8.6558416 60.22265625 25.00390625 C64.85832323 29.79490448 68.4604806 35.37788459 72 41 C69.2115131 43.98209252 66.46241719 46.11030008 62.94921875 48.1796875 C61.45370483 49.06769043 61.45370483 49.06769043 59.92797852 49.97363281 C58.85862061 50.60108398 57.7892627 51.22853516 56.6875 51.875 C54.99506699 52.87888782 53.30264226 53.88279016 51.61088562 54.88781738 C50.45383548 55.57495096 49.29637101 56.2613873 48.13850403 56.94714355 C42.41870882 60.3360719 36.73764816 63.78700143 31.0625 67.25 C30.12535156 67.82041016 29.18820313 68.39082031 28.22265625 68.97851562 C23.68297254 71.7435957 19.15161001 74.5212193 14.6328125 77.3203125 C13.79613037 77.8369043 12.95944824 78.35349609 12.09741211 78.88574219 C10.53073892 79.85390209 8.96631373 80.8257125 7.40454102 81.80175781 C2.22351028 85 2.22351028 85 0 85 C0 56.95 0 28.9 0 0 Z " fill="#FC8211" transform="translate(137,137)"/>
  <path d="M0 0 C9.42322166 18.90743505 12.22858844 37.48818266 6 58 C2.1827668 69.2419615 -3.78653673 79.40451519 -12 88 C-12.66 88 -13.32 88 -14 88 C-14.598125 87.0925 -15.19625 86.185 -15.8125 85.25 C-17.94769518 82.07771001 -20.01794652 80.31937493 -23 78 C-23 77.34 -23 76.68 -23 76 C-23.66 76 -24.32 76 -25 76 C-25 75.34 -25 74.68 -25 74 C-25.66 74 -26.32 74 -27 74 C-28.62109375 72.3203125 -28.62109375 72.3203125 -30.4375 70.125 C-32.58400884 67.53806278 -34.16776562 65.88815626 -37 64 C-37 63.34 -37 62.68 -37 62 C-37.66 62 -38.32 62 -39 62 C-40.33203125 60.64453125 -40.33203125 60.64453125 -41.8125 58.8125 C-46.13377874 53.49489426 -51.12801519 48.90918892 -56.1875 44.3125 C-61.77533784 39.22466216 -61.77533784 39.22466216 -64 37 C-63.45400146 36.67950684 -62.90800293 36.35901367 -62.34545898 36.02880859 C-51.56269088 29.69338608 -40.80864003 23.31394814 -30.125 16.8125 C-29.17069092 16.23209961 -28.21638184 15.65169922 -27.2331543 15.05371094 C-22.83296173 12.3691046 -18.44934244 9.66332433 -14.1015625 6.89453125 C-13.36019043 6.42362061 -12.61881836 5.95270996 -11.85498047 5.4675293 C-10.49319092 4.59899755 -9.13515731 3.72453622 -7.78173828 2.84301758 C-3.32943124 0 -3.32943124 0 0 0 Z " fill="#D7D7D7" transform="translate(201,185)"/>
  <path d="M0 0 C1.02086197 -0.00137466 2.04172394 -0.00274933 3.09352112 -0.00416565 C4.21776993 -0.00057037 5.34201874 0.0030249 6.50033569 0.00672913 C7.68080978 0.0065831 8.86128387 0.00643707 10.07752991 0.00628662 C13.31906079 0.00686492 16.56054879 0.01188868 19.80207109 0.01886058 C23.18801214 0.02510146 26.57395399 0.0256985 29.9598999 0.02688599 C36.37367314 0.02999713 42.78742938 0.03820761 49.20119512 0.04823548 C56.5021885 0.05940333 63.80318269 0.06490876 71.10418248 0.06993091 C86.1247537 0.08039039 101.14530283 0.09873319 116.16586304 0.12025452 C116.16586304 8.70025452 116.16586304 17.28025452 116.16586304 26.12025452 C100.47576847 26.21056522 84.78587997 26.28424234 69.09560108 26.3275032 C61.81025192 26.3481243 54.52507576 26.37623599 47.23983765 26.42201233 C40.88965495 26.46189427 34.53959755 26.48769063 28.18929309 26.4966085 C24.82711092 26.50182105 21.46528721 26.51406225 18.10321999 26.54317474 C14.34889961 26.57214281 10.59532573 26.5762131 6.84091187 26.57435608 C5.72744888 26.58873718 4.6139859 26.60311829 3.46678162 26.61793518 C-4.07331333 26.57748546 -4.07331333 26.57748546 -8.00132751 24.21687317 C-11.16250816 20.60068148 -11.05206432 18.06127436 -11.14663696 13.30775452 C-11.18401978 12.0844342 -11.22140259 10.86111389 -11.25991821 9.60072327 C-10.76394391 5.54647462 -9.68313416 3.97982313 -6.83413696 1.12025452 C-4.3677938 -0.11291707 -2.75862523 -0.00285572 0 0 Z " fill="#EDEDED" transform="translate(324.8341369628906,160.87974548339844)"/>
  <path d="M0 0 C0.79033127 -0.00014603 1.58066254 -0.00029205 2.39494324 -0.0004425 C5.01381145 0.00025556 7.63260902 0.008043 10.25146484 0.01586914 C12.06464601 0.0177337 13.87782767 0.01915742 15.69100952 0.02015686 C20.46843857 0.02397907 25.24583733 0.03380685 30.02325439 0.04486084 C34.89619538 0.05508132 39.76914124 0.05965585 44.64208984 0.06469727 C54.20720948 0.07542936 63.77229865 0.09302378 73.33740234 0.11352539 C73.33740234 8.69352539 73.33740234 17.27352539 73.33740234 26.11352539 C62.8626816 26.20391162 52.38822006 26.27729044 41.91319752 26.32077408 C37.04916197 26.34164456 32.18540717 26.36995239 27.3215332 26.4152832 C22.62717112 26.45876015 17.933079 26.48266656 13.23853111 26.49303436 C11.44795164 26.50042241 9.65738686 26.51484965 7.86692238 26.53644562 C5.35781611 26.56550464 2.84982378 26.56948042 0.34057617 26.56762695 C-0.76857399 26.58919861 -0.76857399 26.58919861 -1.90013123 26.61120605 C-5.54103976 26.58212481 -7.51390067 26.20986853 -10.60029602 24.21014404 C-14.07140669 20.68127356 -13.8781918 18.17181983 -13.97509766 13.30102539 C-14.01248047 12.07770508 -14.04986328 10.85438477 -14.08837891 9.59399414 C-13.5924046 5.53974549 -12.51159485 3.973094 -9.66259766 1.11352539 C-6.58990063 -0.42282312 -3.37058647 -0.01615286 0 0 Z " fill="#EDEDED" transform="translate(365.66259765625,306.886474609375)"/>
  <path d="M0 0 C4.77432816 2.12488721 7.67009908 4.40909012 9.84765625 9.30859375 C10.74473942 14.47750155 10.63165764 18.80764863 7.66015625 23.24609375 C4.6931396 26.74058002 2.21882162 28.99031652 -2.48046875 29.62109375 C-8.20876628 29.89550321 -11.75619227 29.28606413 -16.15234375 25.30859375 C-20.04730669 21.00363471 -20.84325574 17.41629228 -20.60546875 11.77734375 C-19.66636414 6.66084276 -16.71766854 3.62008209 -12.83984375 0.37109375 C-8.38862693 -1.38868964 -4.49407629 -1.44365064 0 0 Z " fill="#E75453" transform="translate(96.15234375,314.69140625)"/>
  <path d="M0 0 C4.7717503 2.12373989 7.60326475 4.44574549 9.84765625 9.30859375 C10.65657757 15.577734 9.51506392 20.12838041 5.84765625 25.30859375 C2.37650688 28.61445029 -0.40947012 29.59410654 -5.08984375 29.87109375 C-9.49766604 29.67194515 -12.36515857 28.69417848 -15.74609375 25.85546875 C-19.50000152 21.7261702 -20.79280692 16.75328583 -20.5703125 11.296875 C-19.5766852 6.57018067 -16.43804028 3.38579895 -12.83984375 0.37109375 C-8.38862693 -1.38868964 -4.49407629 -1.44365064 0 0 Z " fill="#F48B05" transform="translate(192.15234375,314.69140625)"/>
  <path d="M0 0 C4.77231674 2.12399199 7.63740273 4.42761724 9.84765625 9.30859375 C10.81827382 14.29109729 10.25111929 18.2415941 7.78515625 22.68359375 C4.66149702 27.08830423 1.18891509 28.72865139 -4.1328125 29.65234375 C-8.92959396 30.02346804 -11.96950556 28.81448661 -15.67578125 25.78515625 C-19.18646219 22.27447531 -20.33172999 18.71318359 -20.65234375 13.87109375 C-20.47553391 8.87832071 -18.59964366 5.82255415 -15.15234375 2.30859375 C-10.59034232 -1.51362367 -5.51612637 -1.771968 0 0 Z " fill="#87C04D" transform="translate(143.15234375,314.69140625)"/>
  <path d="M0 0 C1.71300044 -0.00461129 3.42599693 -0.01096575 5.13898516 -0.01890898 C9.83722663 -0.03559404 14.53514274 -0.02735965 19.23338532 -0.0149641 C24.30367875 -0.0059126 29.37391629 -0.01988385 34.44419861 -0.03088379 C44.37334274 -0.04867249 54.30236594 -0.04482744 64.23151481 -0.03323323 C72.30096484 -0.02420057 80.37038097 -0.02297418 88.43983459 -0.02732849 C89.58821581 -0.02794142 90.73659702 -0.02855436 91.91977766 -0.02918586 C94.25267455 -0.03046476 96.58557143 -0.03176161 98.9184683 -0.03307623 C120.79528483 -0.04448305 142.67203433 -0.03136669 164.54883987 -0.00987476 C183.32112701 0.0079963 202.09331522 0.00489222 220.86560059 -0.0135498 C242.66400707 -0.03495468 264.46235479 -0.04338441 286.26077032 -0.03110075 C288.58509667 -0.02982655 290.90942302 -0.02856907 293.23374939 -0.02732849 C294.94917963 -0.02640284 294.94917963 -0.02640284 296.69926503 -0.02545848 C304.75924625 -0.02200444 312.8191902 -0.02783511 320.87916565 -0.0372467 C330.70127458 -0.04846378 340.52325563 -0.04543269 350.34534991 -0.02412373 C355.35697761 -0.01360947 360.3683921 -0.00949798 365.38001823 -0.02272034 C369.96808219 -0.03464214 374.55573534 -0.02808509 379.14376205 -0.00681013 C380.80313872 -0.00234319 382.46255011 -0.00461242 384.12190443 -0.01431328 C393.67120061 -0.06585614 401.11178429 -0.08075144 408.61413574 6.50793457 C409.43591309 7.49793457 409.43591309 7.49793457 410.27429199 8.50793457 C410.84019043 9.16793457 411.40608887 9.82793457 411.98913574 10.50793457 C413.35988896 12.54221181 413.91384594 14.10945568 414.33679199 16.50793457 C413.67679199 16.83793457 413.01679199 17.16793457 412.33679199 17.50793457 C412.0338623 16.97684082 411.73093262 16.44574707 411.41882324 15.89855957 C407.45863178 9.2210675 403.85498744 5.58584826 396.24828053 3.14184642 C389.92277961 1.76460934 383.38423537 2.09794676 376.93969727 2.12698364 C375.26779675 2.12352411 373.59589852 2.11875757 371.92400503 2.11280191 C367.34401486 2.10030283 362.76421274 2.10645734 358.18422198 2.11576056 C353.23936372 2.12255517 348.29453753 2.11206778 343.34968567 2.1038208 C333.66834682 2.09048569 323.98707776 2.09336023 314.30573618 2.10205872 C306.43702854 2.10883572 298.56834046 2.10975191 290.69963074 2.10648727 C289.01932566 2.10579773 289.01932566 2.10579773 287.30507502 2.10509425 C285.0293554 2.10413506 282.75363579 2.10316242 280.47791618 2.10217647 C259.1418726 2.09362323 237.80586769 2.10345569 216.46983045 2.11957757 C198.16521102 2.13298069 179.86064867 2.13065257 161.55603027 2.11682129 C140.29597805 2.10076433 119.03595971 2.0944472 97.77590227 2.10365808 C95.50858594 2.10461372 93.24126959 2.10555683 90.97395325 2.10648727 C89.85840989 2.1069501 88.74286653 2.10741293 87.59351882 2.10788978 C79.7348789 2.11047932 71.87626049 2.10610944 64.0176239 2.09904861 C54.43969526 2.09063215 44.86184037 2.09291689 35.28392017 2.10889085 C30.39775844 2.11677154 25.51171965 2.11986853 20.62555885 2.10994339 C16.15103838 2.10099191 11.6767546 2.10593688 7.20225555 2.12187605 C5.58528464 2.12522191 3.96829366 2.12353414 2.3513357 2.11624868 C-11.16580992 1.90055462 -11.16580992 1.90055462 -23.22180176 7.41027832 C-23.84184082 8.08187988 -24.46187988 8.75348145 -25.10070801 9.44543457 C-25.73879395 10.11445801 -26.37687988 10.78348145 -27.03430176 11.47277832 C-28.58855374 13.41466149 -29.6547434 15.24268994 -30.66320801 17.50793457 C-31.32320801 17.50793457 -31.98320801 17.50793457 -32.66320801 17.50793457 C-32.1281968 13.61386568 -31.18237748 11.403475 -28.60070801 8.44543457 C-28.05285645 7.79445801 -27.50500488 7.14348145 -26.94055176 6.47277832 C-18.76075871 -0.58457314 -10.24129098 -0.05987226 0 0 Z " fill="#35A0D9" transform="translate(64.6632080078125,86.4920654296875)"/>
  <path d="M0 0 C0.33 0.66 0.66 1.32 1 2 C0.01806547 3.26424071 -0.98681764 4.51066086 -2 5.75 C-2.556875 6.44609375 -3.11375 7.1421875 -3.6875 7.859375 C-11.69301276 15.26988343 -20.48638207 14.56042446 -30.69685364 14.48774719 C-32.41341544 14.49020896 -34.12997547 14.49442564 -35.84652919 14.50024194 C-40.55444545 14.51111274 -45.2620069 14.49707436 -49.96988857 14.47892153 C-55.05029448 14.46369461 -60.13067118 14.47158076 -65.21109009 14.47660828 C-75.1586258 14.48283274 -85.10602241 14.46784824 -95.05353139 14.44588266 C-106.63209843 14.42119749 -118.21064 14.41827817 -129.78922947 14.41647889 C-150.44146657 14.41260268 -171.09364096 14.39013493 -191.74584961 14.35668945 C-211.79923769 14.32424014 -231.85259266 14.30300612 -251.90600586 14.29516602 C-253.14181103 14.29468052 -254.37761619 14.29419503 -255.65087 14.29369483 C-260.61782274 14.29176624 -265.58477548 14.28985411 -270.55172824 14.28797873 C-289.64748662 14.28045249 -308.74323955 14.26482428 -327.83899126 14.24748212 C-333.61222638 14.24224227 -339.38546138 14.23730933 -345.15869737 14.2331202 C-357.29782981 14.22420879 -369.43694637 14.21245318 -381.5760648 14.19155417 C-386.59712912 14.18294233 -391.6181824 14.17586428 -396.63925362 14.17303848 C-401.23000548 14.17037904 -405.82072544 14.16311141 -410.41146453 14.15204801 C-412.07748336 14.14883217 -413.74350644 14.14731027 -415.40952835 14.1475983 C-417.66372098 14.14772282 -419.91781621 14.14177708 -422.17199421 14.13422108 C-423.42718996 14.13243251 -424.68238572 14.13064394 -425.97561771 14.12880117 C-429 14 -429 14 -432 13 C-432 12.34 -432 11.68 -432 11 C-430.9789392 11.24343395 -430.9789392 11.24343395 -429.93725091 11.49178576 C-426.57427635 12.07366031 -423.41818547 12.12799359 -420.0039854 12.13142776 C-419.30837974 12.1334804 -418.61277408 12.13553303 -417.89608946 12.13764787 C-415.55983347 12.14331269 -413.22363653 12.14186126 -410.88737488 12.14044189 C-409.1975923 12.14302582 -407.50781034 12.14603905 -405.81802922 12.1494453 C-401.17012255 12.15751518 -396.52223133 12.15930486 -391.87431848 12.16004276 C-386.86329571 12.1618933 -381.85228096 12.16944058 -376.84126282 12.17617798 C-365.88269465 12.18976111 -354.92413014 12.19578581 -343.96555495 12.20018864 C-337.12453557 12.20295074 -330.28351759 12.207188 -323.44249916 12.21169281 C-304.5055853 12.22388478 -285.56867257 12.23418467 -266.63175488 12.2375679 C-264.81370611 12.23789725 -264.81370611 12.23789725 -262.95892908 12.23823325 C-261.13651233 12.23856067 -261.13651233 12.23856067 -259.27727908 12.2388947 C-256.81530519 12.23933817 -254.35333131 12.23978473 -251.89135742 12.24023438 C-250.67013136 12.2404558 -249.44890529 12.24067723 -248.19067238 12.24090537 C-228.39587377 12.24485465 -208.60111194 12.26231295 -188.80632754 12.2855939 C-168.48850619 12.30929737 -148.17070331 12.32176927 -127.8528679 12.32293582 C-116.44300573 12.32385307 -105.0331915 12.32961819 -93.62334251 12.34775543 C-83.90915425 12.36314277 -74.19502876 12.36828491 -64.48083063 12.36001733 C-59.52393026 12.35610617 -54.56715633 12.35706322 -49.61027145 12.37107468 C-45.07212447 12.38378532 -40.53419933 12.38264105 -35.99605278 12.37048396 C-34.35474967 12.36852206 -32.713431 12.37162812 -31.07214978 12.38032833 C-19.83342183 12.43612932 -11.44423674 12.05148154 -3 4 C-1.1873495 1.83779383 -1.1873495 1.83779383 0 0 Z " fill="#0C7EBC" transform="translate(477,391)"/>
  <path d="M0 0 C0 0.33 0 0.66 0 1 C-0.556875 1.12375 -1.11375 1.2475 -1.6875 1.375 C-8.47146289 3.20850348 -12.62694897 6.53630794 -17 12 C-18.20073771 14.14349269 -18.20073771 14.14349269 -19 16 C-19.66 16 -20.32 16 -21 16 C-20.19226093 10.12088655 -17.27383412 6.93750552 -13 3 C-8.73710281 0.0345063 -5.16037858 -1.93514197 0 0 Z " fill="#2899D7" transform="translate(53,88)"/>
  <path d="M0 0 C8.00203413 6.37970392 8.00203413 6.37970392 10 11 C9.67 11.99 9.34 12.98 9 14 C8.443125 13.2265625 8.443125 13.2265625 7.875 12.4375 C4.80203429 8.44264457 1.56516439 4.56516439 -2 1 C-1.34 0.67 -0.68 0.34 0 0 Z " fill="#1E95D5" transform="translate(469,90)"/>
  <path d="M0 0 C0.66 0.33 1.32 0.66 2 1 C1.57847656 1.48210937 1.15695313 1.96421875 0.72265625 2.4609375 C0.17480469 3.09257813 -0.37304688 3.72421875 -0.9375 4.375 C-1.48277344 5.00148438 -2.02804688 5.62796875 -2.58984375 6.2734375 C-4.06958624 7.95632334 -4.06958624 7.95632334 -5 10 C-5.66 10 -6.32 10 -7 10 C-6.4994925 6.29624453 -5.93330887 4.36921101 -3 2 C-2.01 1.34 -1.02 0.68 0 0 Z " fill="#1591D4" transform="translate(39,94)"/>
</svg>
