<?xml version="1.0" encoding="UTF-8"?>
<svg version="1.1" xmlns="http://www.w3.org/2000/svg" width="1300" height="1308">
<path d="M0 0 C429 0 858 0 1300 0 C1300 431.64 1300 863.28 1300 1308 C871 1308 442 1308 0 1308 C0 876.36 0 444.72 0 0 Z " fill="#FEFEFE" transform="translate(0,0)"/>
<path d="M0 0 C282.48 0 564.96 0 856 0 C856 322.3121083 856 322.3121083 852.25 359.0625 C852.12644638 360.31611832 852.12644638 360.31611832 852.00039673 361.59506226 C850.02782142 381.49686809 847.24259493 401.26803875 844 421 C843.8760083 421.76022461 843.7520166 422.52044922 843.62426758 423.30371094 C836.68899842 465.60471644 825.93184083 507.47163287 812 548 C811.7535675 548.71700073 811.50713501 549.43400146 811.25323486 550.17272949 C793.9678398 600.26360373 772.09236291 649.40837333 745 695 C744.43861328 695.94584961 743.87722656 696.89169922 743.29882812 697.86621094 C731.87737892 717.02292256 719.7911311 735.73045883 707 754 C706.4121875 754.84425537 706.4121875 754.84425537 705.8125 755.70556641 C687.556062 781.87980923 667.5009359 807.12286561 646.0390625 830.74609375 C644.20913753 832.7688269 642.41118272 834.81369435 640.625 836.875 C633.93588277 844.54187682 627.06590514 852.01983526 619.8125 859.15625 C618.03874885 860.96058307 616.39106938 862.82489938 614.75 864.75 C608.09661673 872.46914261 600.75053706 879.62713653 592.9921875 886.2265625 C590.56062019 888.39113418 588.28788919 890.68429453 586 893 C582.5095856 896.52754647 578.95355686 899.87384474 575.18359375 903.09765625 C572.99209941 905.00688299 570.85671069 906.97006541 568.7265625 908.94726562 C563.60190009 913.70123545 558.36514372 918.23115051 552.91796875 922.6171875 C549.54025139 925.37543059 546.23811758 928.2129343 542.9375 931.0625 C537.3885841 935.8385471 531.76676169 940.48756814 526 945 C525.38205566 945.48662109 524.76411133 945.97324219 524.12744141 946.47460938 C512.59137383 955.55590593 500.88867395 964.38561766 489 973 C488.00709961 973.72123047 488.00709961 973.72123047 486.99414062 974.45703125 C475.82315905 982.5420434 464.34191469 990.16544296 452.8581543 997.79541016 C452.23995316 998.20622833 451.62175201 998.61704651 450.9848175 999.04031372 C449.76120032 999.85158635 448.53618968 1000.66076152 447.30973816 1001.46774292 C444.36707062 1003.407043 441.45514937 1005.37365918 438.58837891 1007.42382812 C437.53440918 1008.16568359 436.48043945 1008.90753906 435.39453125 1009.671875 C434.00971558 1010.67105957 434.00971558 1010.67105957 432.59692383 1011.69042969 C430 1013 430 1013 427.39819336 1012.84082031 C425.11082588 1012.03885619 423.27389618 1011.17512749 421.234375 1009.875 C420.5220874 1009.42455322 419.8097998 1008.97410645 419.07592773 1008.51000977 C418.30837158 1008.01170654 417.54081543 1007.51340332 416.75 1007 C415.52228882 1006.21290649 415.52228882 1006.21290649 414.26977539 1005.40991211 C387.99790349 988.44668263 362.70667472 970.15517494 338 951 C337.42991211 950.55897949 336.85982422 950.11795898 336.27246094 949.66357422 C328.72580208 943.81712578 321.34259685 937.81962135 314.0859375 931.6171875 C311.24394435 929.19308244 308.34709935 926.84268601 305.4375 924.5 C300.36392507 920.37309794 295.56258858 915.99897442 290.76953125 911.5546875 C288.54081607 909.49886278 286.29232081 907.48383043 284 905.5 C280.07743854 902.10044673 276.26082245 898.58830846 272.44824219 895.06665039 C268.8216403 891.72486321 265.12012802 888.49213895 261.328125 885.33984375 C260 884 260 884 260 882 C259.41968018 881.74492676 258.83936035 881.48985352 258.24145508 881.22705078 C255.76734282 879.87263534 254.12278998 878.36587734 252.13671875 876.3671875 C251.41419922 875.64273438 250.69167969 874.91828125 249.94726562 874.171875 C249.20154297 873.41390625 248.45582031 872.6559375 247.6875 871.875 C246.95337891 871.14023438 246.21925781 870.40546875 245.46289062 869.6484375 C241.33450908 865.48708752 237.39296156 861.22049267 233.56567383 856.78173828 C231.48160169 854.41006224 229.26146986 852.2019575 227 850 C223.45081843 846.4882345 220.08031543 842.90991099 216.8359375 839.1171875 C214.6479383 836.59400545 212.38706887 834.14445481 210.125 831.6875 C206.05582609 827.22611655 202.20022184 822.64055282 198.41015625 817.94140625 C196.18253683 815.22277185 193.90672671 812.55837635 191.60449219 809.90332031 C185.88535146 803.30765517 180.46133227 796.55500644 175.20458984 789.58691406 C173.22320805 786.97666241 171.20008875 784.39872516 169.1875 781.8125 C162.92248262 773.68894301 156.94142301 765.36188496 151 757 C150.35160156 756.08831055 149.70320312 755.17662109 149.03515625 754.23730469 C140.70403907 742.48819077 132.73572257 730.63763542 125.3671875 718.26318359 C123.94079807 715.90199966 122.47652226 713.56841794 121 711.23828125 C112.35066911 697.56226363 104.4729234 683.51111878 96.77734375 669.28466797 C95.69774172 667.28948037 94.61520974 665.29586955 93.52734375 663.30517578 C51.2769946 585.9775778 24.86808332 499.33599693 0 0 Z " fill="#010101" transform="translate(227,197)"/>
<path d="M0 0 C0.81417892 0.02785583 1.62835785 0.05571167 2.46720886 0.08441162 C5.0561386 0.17744771 7.64278916 0.29923616 10.23046875 0.421875 C11.99016153 0.4901843 13.74992844 0.55661167 15.50976562 0.62109375 C19.81366372 0.78289852 24.11574834 0.97049043 28.41796875 1.171875 C26.8824604 81.73940403 14.36250642 161.13347267 -54.58203125 347.171875 C-55.04077637 348.11659668 -55.49952148 349.06131836 -55.97216797 350.03466797 C-86.93747368 413.73822992 -86.93747368 413.73822992 -104.10546875 429.76953125 C-105.83753961 431.41454035 -107.24003375 433.19834927 -108.58203125 435.171875 C-111.64287793 433.79601428 -113.83967055 432.20413079 -116.26953125 429.8984375 C-116.96248291 429.24415771 -117.65543457 428.58987793 -118.36938477 427.91577148 C-119.09955811 427.21653564 -119.82973145 426.5172998 -120.58203125 425.796875 C-121.33734131 425.08023682 -122.09265137 424.36359863 -122.87084961 423.62524414 C-127.86721776 418.86636914 -132.77222678 414.02521468 -137.61962891 409.11523438 C-140.14924349 406.56374488 -142.71759136 404.12107347 -145.45703125 401.796875 C-149.38035481 398.46451231 -152.96411548 394.82771939 -156.58203125 391.171875 C-161.8940447 385.78648956 -161.8940447 385.78648956 -167.51953125 380.734375 C-172.33099487 376.67113035 -176.6637978 372.11361497 -181.09130859 367.64306641 C-184.75034012 363.9621081 -188.45934317 360.45028837 -192.4296875 357.10546875 C-196.26238186 353.66230413 -199.82849935 349.94372533 -203.45166016 346.28271484 C-206.39251997 343.32293768 -209.32600769 340.42476137 -212.51953125 337.734375 C-217.33099487 333.67113035 -221.6637978 329.11361497 -226.09130859 324.64306641 C-229.75034012 320.9621081 -233.45934317 317.45028837 -237.4296875 314.10546875 C-241.26238186 310.66230413 -244.82849935 306.94372533 -248.45166016 303.28271484 C-251.39251997 300.32293768 -254.32600769 297.42476137 -257.51953125 294.734375 C-260.19089294 292.43349661 -262.74185575 290.06726958 -265.22265625 287.5625 C-265.886604 286.89532959 -266.55055176 286.22815918 -267.23461914 285.54077148 C-268.56469181 284.19665606 -269.89212136 282.84991859 -271.21655273 281.50024414 C-274.52129659 278.15080093 -277.81689932 275.01552149 -281.58203125 272.171875 C-280.10493535 268.75291655 -278.18860867 266.528785 -275.56326103 263.90421581 C-274.7177474 263.05410339 -273.87223377 262.20399096 -273.00109851 261.32811755 C-272.06688072 260.39904332 -271.13266292 259.46996909 -270.1701355 258.51274109 C-269.17135862 257.51237619 -268.17301976 256.51157381 -267.17508233 255.51037151 C-264.42895554 252.75782266 -261.67661272 250.01156332 -258.92322588 247.26627934 C-255.95560805 244.30523257 -252.99375058 241.33843373 -250.03117371 238.37234497 C-244.22426895 232.56039405 -238.41202945 226.7538063 -232.59798102 220.94900259 C-225.82621991 214.18762214 -219.05968561 207.42102104 -212.29335643 200.65420542 C-200.216284 188.57663209 -188.1343839 176.50389966 -176.04980469 164.43383789 C-164.32841107 152.72651812 -152.61051143 141.01571601 -140.89648438 129.30102539 C-140.17569312 128.58019418 -139.45490187 127.85936297 -138.71226846 127.11668839 C-137.99271612 126.3970957 -137.27316378 125.67750301 -136.53180683 124.93610448 C-123.19497715 111.59858417 -109.85485603 98.26436027 -96.51320853 84.9316594 C-91.79783822 80.21930158 -87.0834413 75.50597129 -82.36935043 70.7923336 C-76.61886421 65.04253093 -70.8664819 59.29463267 -65.11175661 53.54907259 C-62.17692954 50.61885006 -59.24287807 47.68786254 -56.31098366 44.75470543 C-53.62351752 42.06613805 -50.93373133 39.37991413 -48.24212326 36.69549356 C-46.81491008 35.27093132 -45.39011426 33.84394847 -43.96542442 32.41686267 C-39.55233403 28.02029623 -35.09153854 23.74876478 -30.35392106 19.70224983 C-26.43826684 16.32031343 -22.72195155 12.71201704 -18.96289062 9.15820312 C-18.33833984 8.57103516 -17.71378906 7.98386719 -17.0703125 7.37890625 C-16.51899658 6.8578833 -15.96768066 6.33686035 -15.3996582 5.80004883 C-14.79984131 5.26275146 -14.20002441 4.7254541 -13.58203125 4.171875 C-12.86208984 3.4492749 -12.14214844 2.7266748 -11.40039062 1.98217773 C-7.59851577 -0.4598616 -4.35035417 -0.23607765 0 0 Z " fill="#FEFEFE" transform="translate(1024.58203125,484.828125)"/>
<path d="M0 0 C4.49784829 -0.27503306 8.99107564 -0.47286539 13.49487305 -0.60424805 C15.02113158 -0.65907309 16.54682577 -0.73377737 18.07104492 -0.82983398 C30.62931234 -1.60055798 30.62931234 -1.60055798 36.28271484 2.21630859 C39.17748596 4.89775452 41.58121722 7.88841713 44 11 C45.106462 12.28826993 46.22019271 13.57036216 47.34375 14.84375 C47.88515625 15.47667969 48.4265625 16.10960937 48.984375 16.76171875 C53.91235351 22.23406698 59.26491874 27.32388184 64.5 32.5 C77.81530387 45.66533263 77.81530387 45.66533263 83.07226562 51.84960938 C87.959402 57.30121743 93.29542362 62.35404315 98.5 67.5 C111.81604763 80.66606801 111.81604763 80.66606801 115.46875 84.96875 C120.89761801 91.35525683 127.04561369 97.11010163 133 103 C146.87680185 116.72651157 146.87680185 116.72651157 152.08984375 122.8671875 C156.96868107 128.31472364 162.30154442 133.36009501 167.5 138.5 C180.81530387 151.66533263 180.81530387 151.66533263 186.07226562 157.84960938 C190.959402 163.30121743 196.29542362 168.35404315 201.5 173.5 C214.81604763 186.66606801 214.81604763 186.66606801 218.46875 190.96875 C223.89761801 197.35525683 230.04561369 203.11010163 236 209 C249.87680185 222.72651157 249.87680185 222.72651157 255.08984375 228.8671875 C259.96868107 234.31472364 265.30154442 239.36009501 270.5 244.5 C284.19371928 258.03948592 284.19371928 258.03948592 289.44775391 264.22070312 C292.28293207 267.47058964 295.36833042 270.4730518 298.4375 273.5 C299.07365234 274.13164063 299.70980469 274.76328125 300.36523438 275.4140625 C301.90782806 276.94505774 303.45357314 278.47287667 305 280 C301.50902128 284.14675094 297.96723585 288.17036165 294.125 292 C293.34382813 292.78375 292.56265625 293.5675 291.7578125 294.375 C289.72622214 296.30875173 287.68884362 298.12634443 285.55615234 299.93945312 C280.46183738 304.38694549 275.71390781 309.17306818 270.95368958 313.97114563 C269.30666117 315.63113059 267.65636048 317.28780235 266.00524902 318.94372559 C262.50065361 322.45965651 259.00002445 325.97951953 255.5 329.5 C251.43880992 333.58492585 247.37593706 337.66814893 243.30879211 341.74714661 C241.69607417 343.36626771 240.08643782 344.98840784 238.47692871 346.61071777 C233.81396541 351.29670678 229.10320346 355.84619441 224.07800293 360.14685059 C219.92822445 363.84759588 216.05337979 367.83965933 212.1388855 371.78594971 C210.52546486 373.41233269 208.90876729 375.03539696 207.29125977 376.65771484 C203.85799254 380.10231484 200.42869316 383.55084781 197 387 C193.02141817 391.00232205 189.0411508 395.00293815 185.05661011 398.99932861 C183.47712934 400.58521006 181.90073203 402.17411096 180.32446289 403.76318359 C175.60116838 408.51029309 170.8302628 413.13085158 165.7409668 417.4861145 C163.10013277 419.78249393 160.65543498 422.23288641 158.1875 424.71484375 C157.68831055 425.21544815 157.18912109 425.71605255 156.67480469 426.23182678 C155.1141263 427.79800764 153.55700153 429.36766471 152 430.9375 C150.92862113 432.01390654 149.85700818 433.09008014 148.78515625 434.16601562 C146.18740362 436.77466745 143.59282038 439.38644471 141 442 C135.78852007 438.11648236 132.62260815 433.91741997 129.1875 428.4375 C128.63835937 427.57543945 128.08921875 426.71337891 127.5234375 425.82519531 C125.66671846 422.8929378 123.83114289 419.94829315 122 417 C121.32404785 415.91541504 120.6480957 414.83083008 119.95166016 413.71337891 C110.58018604 398.64542804 101.69525532 383.38843488 93.41845703 367.68554688 C92.10286 365.19474355 90.77152951 362.71323066 89.43359375 360.234375 C51.01093291 288.73148704 25.64918598 210.34225152 0 0 Z " fill="#FEFEFE" transform="translate(257,485)"/>
<path d="M0 0 C4.95592173 4.15598728 9.62032887 8.47896422 14.18174744 13.06149292 C14.86968165 13.74857271 15.55761587 14.43565251 16.26639658 15.1435529 C18.55489515 17.43041349 20.83981769 19.72081289 23.12475586 22.01123047 C24.77087276 23.65762963 26.41721027 25.30380825 28.06375122 26.94978333 C32.52204781 31.40779346 36.9772583 35.86887618 41.431916 40.33052206 C45.61948287 44.52371316 49.80936173 48.71459177 53.99922759 52.90548553 C62.29416894 61.20261174 70.5868779 69.50196541 78.87817383 77.80273438 C86.92908062 85.86282994 94.98104429 93.92186727 103.03442383 101.97949219 C103.53141303 102.47674411 104.02840222 102.97399603 104.5404517 103.48631619 C107.03387992 105.98104951 109.52732885 108.47576213 112.02078807 110.97046447 C132.68373676 131.64376814 153.34302171 152.32073068 174 173 C173.04141978 174.12374762 172.08207377 175.24684204 171.1224041 176.36965942 C170.32117349 177.30789897 170.32117349 177.30789897 169.5037564 178.26509285 C167.84203372 180.18224815 166.11734943 182.00952775 164.32470703 183.8046875 C163.67027618 184.46227051 163.01584534 185.11985352 162.34158325 185.79736328 C161.31011673 186.82579346 161.31011673 186.82579346 160.2578125 187.875 C159.53061005 188.60315918 158.80340759 189.33131836 158.0541687 190.08154297 C156.52415712 191.6122313 154.99289701 193.14167257 153.46044922 194.66992188 C151.13524902 196.98977455 148.81542402 199.31490539 146.49609375 201.640625 C145.00032043 203.1357373 143.50423681 204.63053926 142.0078125 206.125 C141.32421661 206.81062012 140.64062073 207.49624023 139.93630981 208.20263672 C136.01057438 212.1096437 131.98488693 215.84247756 127.78471375 219.45339966 C125.01591428 221.85279071 122.3591453 224.36872419 119.6875 226.875 C114.8189425 231.40901694 109.80667836 235.68492781 104.6171875 239.8515625 C101.98158387 242.01511772 99.45576625 244.2638956 96.9375 246.5625 C92.12518208 250.93664768 87.11886654 254.99203641 82 259 C80.90464843 259.86420387 79.8096135 260.72880919 78.71484375 261.59375 C58.1680422 277.80945281 37.22312814 293.35828954 15.63964844 308.17285156 C13.20266138 309.85971904 10.78980667 311.57542156 8.3828125 313.3046875 C7.04711564 314.24513353 5.7111969 315.18526456 4.375 316.125 C3.79008789 316.5571582 3.20517578 316.98931641 2.60253906 317.43457031 C0.9609375 318.5703125 0.9609375 318.5703125 -2 320 C-5.65184117 318.90079357 -8.57771863 317.09522875 -11.703125 314.9453125 C-12.59217529 314.33679443 -13.48122559 313.72827637 -14.3972168 313.10131836 C-15.33863525 312.4491333 -16.28005371 311.79694824 -17.25 311.125 C-18.23073486 310.45025635 -19.21146973 309.7755127 -20.22192383 309.08032227 C-23.15252592 307.06006423 -26.07739668 305.0318081 -29 303 C-29.78616699 302.45424316 -30.57233398 301.90848633 -31.38232422 301.34619141 C-47.61322659 290.05338722 -63.58598521 278.38823773 -79 266 C-79.9605127 265.22873779 -79.9605127 265.22873779 -80.94042969 264.44189453 C-89.51909554 257.54040139 -98.00664201 250.53959185 -106.37597656 243.38574219 C-108.06714221 241.94270908 -109.76374619 240.50625183 -111.4609375 239.0703125 C-118.83365533 232.81492027 -126.00951624 226.39035441 -133.07128906 219.78588867 C-134.56534251 218.40247083 -136.0692612 217.0297032 -137.57714844 215.66137695 C-144.95373162 208.95900418 -152.14963162 202.09758167 -159.22119141 195.07397461 C-160.41698908 193.88982964 -161.61727306 192.71019966 -162.82177734 191.53491211 C-164.59949181 189.80000245 -166.36344936 188.05208338 -168.125 186.30078125 C-168.65730225 185.78598709 -169.18960449 185.27119293 -169.73803711 184.74079895 C-173.58211987 180.87429237 -175.750768 176.96761451 -178 172 C-176.74123047 170.84951172 -176.74123047 170.84951172 -175.45703125 169.67578125 C-166.54218895 161.4677649 -157.92041446 153.00241124 -149.41137695 144.37426758 C-145.75192374 140.6785718 -142.11164661 137.02767257 -138.15234375 133.65234375 C-132.27704911 128.61542805 -126.93459934 123.00195053 -121.5 117.5 C-109.39874904 105.2487778 -109.39874904 105.2487778 -103.12304688 99.90039062 C-98.02896625 95.3405558 -93.30331957 90.36284729 -88.5 85.5 C-76.39874904 73.2487778 -76.39874904 73.2487778 -70.12304688 67.90039062 C-65.02896625 63.3405558 -60.30331957 58.36284729 -55.5 53.5 C-43.39874904 41.2487778 -43.39874904 41.2487778 -37.12304688 35.90039062 C-32.02896625 31.3405558 -27.30331957 26.36284729 -22.5 21.5 C-9.65163647 8.49240623 -9.65163647 8.49240623 -3.50585938 3.28710938 C-2.28812156 2.24626733 -1.13274833 1.13274833 0 0 Z " fill="#FEFEFE" transform="translate(658,855)"/>
<path d="M0 0 C1.83479025 -0.00874829 1.83479025 -0.00874829 3.70664698 -0.01767331 C5.06083766 -0.01404027 6.41502783 -0.01021591 7.76921749 -0.00622082 C9.21023934 -0.00924139 10.65125959 -0.0131304 12.09227699 -0.01781338 C16.05243464 -0.02811396 20.01250197 -0.02590635 23.9726671 -0.02163279 C28.24332592 -0.01916936 32.51396279 -0.02817487 36.78461361 -0.03567028 C45.1506758 -0.04842913 53.51670592 -0.05020956 61.88277621 -0.04787002 C68.68039587 -0.04608833 75.47800578 -0.04783328 82.27562428 -0.05209446 C83.72577737 -0.05298724 83.72577737 -0.05298724 85.20522649 -0.05389806 C87.1690689 -0.05510978 89.1329113 -0.05632392 91.09675371 -0.05754044 C109.51880261 -0.06842016 127.94083321 -0.0662512 146.36288314 -0.06015559 C163.22782031 -0.05498379 180.09269977 -0.06624805 196.95762552 -0.08525381 C214.26507853 -0.10460917 231.5725042 -0.11289241 248.87996811 -0.10913056 C258.60066498 -0.1072153 268.3213127 -0.10973778 278.04200077 -0.1238451 C286.31545644 -0.13573043 294.58883268 -0.13719578 302.86228938 -0.12505493 C307.08555203 -0.11914667 311.30866919 -0.11812032 315.53192234 -0.13005733 C319.39509202 -0.14085 323.25799359 -0.13789245 327.12115037 -0.12379565 C328.52146643 -0.12113039 329.92180306 -0.12357212 331.32209904 -0.13153151 C333.22030473 -0.14157538 335.11858549 -0.1314618 337.01678467 -0.12025452 C338.07273459 -0.12030953 339.1286845 -0.12036455 340.2166329 -0.12042123 C343.2942205 0.30238784 344.66984886 1.19235447 346.94547176 3.25447559 C345.40419825 6.96715653 343.13703943 9.23563257 340.25797176 12.00447559 C337.32006399 14.83729491 334.53002229 17.70763334 331.88565731 20.81209278 C327.51727326 25.82481855 322.82357001 30.48327872 318.10172176 35.16072559 C316.68355526 36.57310492 315.26539169 37.9854872 313.8473959 39.39803791 C310.88480731 42.34759583 307.91763156 45.29253872 304.9512701 48.23830128 C302.49966145 50.67324666 300.04909845 53.10922376 297.60111141 55.54781055 C295.77478747 57.36668173 293.94621816 59.18330211 292.11502743 60.99727345 C288.44001499 64.65779576 284.8267163 68.3192349 281.44547176 72.25447559 C277.2479963 77.13968165 272.6752335 81.63022036 268.10172176 86.16072559 C266.68355526 87.57310492 265.26539169 88.9854872 263.8473959 90.39803791 C260.88480731 93.34759583 257.91763156 96.29253872 254.9512701 99.23830128 C252.49966145 101.67324666 250.04909845 104.10922376 247.60111141 106.54781055 C245.77478747 108.36668173 243.94621816 110.18330211 242.11502743 111.99727345 C238.44001499 115.65779576 234.8267163 119.3192349 231.44547176 123.25447559 C227.2479963 128.13968165 222.6752335 132.63022036 218.10172176 137.16072559 C216.68355526 138.57310492 215.26539169 139.9854872 213.8473959 141.39803791 C210.88480731 144.34759583 207.91763156 147.29253872 204.9512701 150.23830128 C202.49966145 152.67324666 200.04909845 155.10922376 197.60111141 157.54781055 C195.77478747 159.36668173 193.94621816 161.18330211 192.11502743 162.99727345 C187.70094506 167.39395163 183.4312218 171.84719109 179.38280392 176.58418751 C177.39020019 178.89974293 175.28315051 181.08546866 173.13297176 183.25447559 C172.38402645 184.01760059 171.63508114 184.78072559 170.86344051 185.56697559 C168.94547176 187.25447559 168.94547176 187.25447559 166.94547176 187.25447559 C166.94547176 186.59447559 166.94547176 185.93447559 166.94547176 185.25447559 C165.29547176 184.92447559 163.64547176 184.59447559 161.94547176 184.25447559 C161.61547176 183.26447559 161.28547176 182.27447559 160.94547176 181.25447559 C160.28547176 181.25447559 159.62547176 181.25447559 158.94547176 181.25447559 C157.65836239 179.94392872 157.65836239 179.94392872 156.10172176 178.03572559 C152.90385575 174.27508813 149.53999543 170.76001101 146.03922176 167.28572559 C145.50716122 166.75696827 144.97510067 166.22821095 144.42691708 165.68343067 C142.76838369 164.03846352 141.10737641 162.39603632 139.44547176 160.75447559 C127.19351046 148.65249458 127.19351046 148.65249458 123.47672176 144.28572559 C118.34213027 138.26088747 112.57145176 132.81445247 106.94547176 127.25447559 C94.13292337 114.59224202 94.13292337 114.59224202 88.82828426 108.35994434 C84.27667173 103.27007058 79.30218678 98.55173796 74.44547176 93.75447559 C62.19351046 81.65249458 62.19351046 81.65249458 58.47672176 77.28572559 C53.34213027 71.26088747 47.57145176 65.81445247 41.94547176 60.25447559 C29.13292337 47.59224202 29.13292337 47.59224202 23.82828426 41.35994434 C19.27667173 36.27007058 14.30218678 31.55173796 9.44547176 26.75447559 C-10.10550932 7.4428245 -10.10550932 7.4428245 -11.05452824 2.25447559 C-7.21953476 0.47562321 -4.21397892 0.00345852 0 0 Z " fill="#FEFEFE" transform="translate(484.05452823638916,485.7455244064331)"/>
<path d="M0 0 C6.74740249 5.93771419 12.4245637 16.67803263 13.2734375 25.70751953 C13.43360991 33.72781906 11.39632541 40.79277586 9.203125 48.44921875 C6.78612306 57.36910688 5.292528 66.72580148 8.8828125 75.546875 C9.21925781 76.413125 9.55570313 77.279375 9.90234375 78.171875 C11.06869846 80.54359295 12.48720825 82.44211749 14.0703125 84.546875 C14.0703125 85.206875 14.0703125 85.866875 14.0703125 86.546875 C14.7303125 86.546875 15.3903125 86.546875 16.0703125 86.546875 C15.5753125 85.5878125 15.5753125 85.5878125 15.0703125 84.609375 C12.39574442 76.41851024 14.83005702 68.7806297 17.0703125 60.796875 C19.97767066 49.83078788 22.06198376 40.52397097 18.0703125 29.546875 C25.42810213 35.64332926 28.84497455 45.24466152 30.0703125 54.546875 C30.43688995 60.22882547 29.62124771 65.14779984 28.515625 70.71484375 C27.84158802 75.00148246 27.90140807 79.22104485 28.0703125 83.546875 C28.7303125 83.876875 29.3903125 84.206875 30.0703125 84.546875 C30.1734375 83.721875 30.2765625 82.896875 30.3828125 82.046875 C31.05435577 78.62810929 32.0875739 75.76007679 33.44921875 72.57421875 C34.18889152 70.15981519 34.17039965 68.05775688 34.0703125 65.546875 C34.60140625 65.95679688 35.1325 66.36671875 35.6796875 66.7890625 C36.38609375 67.32789063 37.0925 67.86671875 37.8203125 68.421875 C38.51640625 68.95554687 39.2125 69.48921875 39.9296875 70.0390625 C49.77674539 76.97512882 64.80182605 73.46303481 76.18170166 71.89309692 C79.76699151 71.40313015 83.3578797 70.95872972 86.94921875 70.515625 C88.00499115 70.38535667 88.00499115 70.38535667 89.08209229 70.25245667 C103.72352497 68.47413848 116.70992427 67.7686863 131.0703125 71.546875 C143.75294728 75.07709733 143.75294728 75.07709733 156.4453125 73.296875 C160.15287638 70.82516575 161.66984194 68.74828668 163.0703125 64.546875 C163.52281437 59.84085558 163.20468417 56.16752068 160.55859375 52.12109375 C155.22200113 46.47635143 146.76987528 45.88521701 139.42578125 45.49560547 C126.2767266 45.18320284 113.03619257 47.4712377 100.07421875 49.453125 C83.40788004 51.97888966 65.0969825 53.9454622 50.4453125 43.609375 C45.1554267 39.18814413 43.36820633 34.8237071 42.7578125 28.109375 C42.90146006 19.58628672 45.75718999 11.03193341 51.5078125 4.71875 C53.32514055 3.35575396 54.85164524 2.94853028 57.0703125 2.546875 C56.8021875 3.0625 56.5340625 3.578125 56.2578125 4.109375 C55.8659375 4.91375 55.4740625 5.718125 55.0703125 6.546875 C54.5340625 7.619375 53.9978125 8.691875 53.4453125 9.796875 C51.33338609 15.55667429 51.17636917 20.08600723 53.5703125 25.671875 C56.69410431 31.19274316 60.98068252 34.4191175 66.90625 36.58203125 C85.40822936 41.69504611 103.68547626 35.8278472 121.54785156 30.78491211 C140.01162487 25.59905413 155.32945965 23.13484532 172.859375 32.62890625 C181.35752573 37.70505225 185.73258244 44.7582101 189.3828125 53.796875 C190.86698422 61.89235711 191.65938726 71.32693001 187.0703125 78.546875 C181.70955886 85.78584889 174.80417668 89.65990208 166.83544922 93.45288086 C166.12018066 93.79971924 165.40491211 94.14655762 164.66796875 94.50390625 C164.02351807 94.80272705 163.37906738 95.10154785 162.71508789 95.40942383 C160.66093663 96.82998056 160.01357739 98.26848179 159.0703125 100.546875 C158.0803125 99.495 158.0803125 99.495 157.0703125 98.421875 C151.33532776 92.35570926 151.33532776 92.35570926 144.0703125 89.546875 C145.0603125 90.26875 146.0503125 90.990625 147.0703125 91.734375 C155.10122452 98.68698822 159.62872737 109.42601757 164.5703125 118.671875 C165.01608643 119.50162842 165.46186035 120.33138184 165.92114258 121.1862793 C166.33130615 121.967854 166.74146973 122.74942871 167.1640625 123.5546875 C167.71610352 124.60100342 167.71610352 124.60100342 168.27929688 125.66845703 C169.0703125 127.546875 169.0703125 127.546875 169.0703125 130.546875 C164.0851436 129.48446196 159.1606657 128.32648173 154.24609375 126.97265625 C153.27196533 126.70493408 152.29783691 126.43721191 151.29418945 126.16137695 C150.56031006 125.95859131 149.82643066 125.75580566 149.0703125 125.546875 C170.59042916 135.74370339 170.59042916 135.74370339 193.70703125 140.95703125 C196.0703125 141.546875 196.0703125 141.546875 198.0703125 144.546875 C197.88751004 147.22994329 197.59867645 149.77211095 197.1953125 152.421875 C195.2601307 165.53740197 195.2601307 165.53740197 197.1328125 178.484375 C198.18988561 181.93748049 197.91695705 184.07563233 197.0703125 187.546875 C194.0703125 187.546875 194.0703125 187.546875 191.9453125 185.484375 C191.52121094 185.03320312 191.09710937 184.58203125 190.66015625 184.1171875 C186.39806638 179.90745746 181.52351867 176.05708102 176.0703125 173.546875 C176.11671875 172.66644531 176.163125 171.78601563 176.2109375 170.87890625 C176.24703125 169.71746094 176.283125 168.55601562 176.3203125 167.359375 C176.36671875 166.21082031 176.413125 165.06226563 176.4609375 163.87890625 C176.22698712 160.53786547 176.22698712 160.53786547 174.8359375 157.6328125 C170.22420671 154.15447318 165.15890428 155.11245176 159.5703125 155.359375 C140.27123263 156.03595194 125.10168275 152.51794956 110.09375 139.8828125 C104.85523419 134.98921954 100.70928398 129.25065017 96.54541016 123.44555664 C90.44684877 115.03612385 84.29139053 108.15831554 73.71875 106.0859375 C71.84334333 105.84074299 69.95669766 105.68406665 68.0703125 105.546875 C68.97652344 105.94777344 69.88273438 106.34867187 70.81640625 106.76171875 C84.45170975 113.02319118 92.04517994 122.10630806 100.0703125 134.546875 C100.69164062 135.41828125 101.31296875 136.2896875 101.953125 137.1875 C103.0703125 139.546875 103.0703125 139.546875 102.44921875 141.55859375 C101.99417969 142.21472656 101.53914062 142.87085938 101.0703125 143.546875 C100.58433594 144.31644531 100.09835937 145.08601562 99.59765625 145.87890625 C99.07300781 146.69746094 98.54835938 147.51601563 98.0078125 148.359375 C95.54399365 152.47177852 93.9758845 155.63661906 94.0703125 160.546875 C95.05388602 162.55500426 96.05339986 164.55542109 97.0703125 166.546875 C96.91912185 170.13292835 96.71753185 171.9202023 94.1015625 174.453125 C93.26625 174.9790625 92.4309375 175.505 91.5703125 176.046875 C90.66925781 176.62695312 89.76820313 177.20703125 88.83984375 177.8046875 C87.46892578 178.66707031 87.46892578 178.66707031 86.0703125 179.546875 C84.46528486 180.67064631 82.8610574 181.79556178 81.2578125 182.921875 C78.24577511 185.03538717 75.81313144 186.48314279 72.0703125 186.546875 C69.75390625 184.59765625 69.75390625 184.59765625 67.5078125 181.859375 C64.79797635 178.61414661 62.10957999 175.48965781 59.0703125 172.546875 C60.31766817 171.8959491 61.56833082 171.25135831 62.8203125 170.609375 C63.51640625 170.24972656 64.2125 169.89007813 64.9296875 169.51953125 C66.97255683 168.59129318 68.88146626 168.01520922 71.0703125 167.546875 C71.83307818 160.88449111 71.83307818 160.88449111 69.95703125 154.703125 C68.46127422 153.19013608 68.46127422 153.19013608 66.0703125 151.546875 C66.34294922 150.59941406 66.34294922 150.59941406 66.62109375 149.6328125 C68.76549144 142.00095612 70.47235655 134.30999433 72.0703125 126.546875 C65.91716672 128.61722758 60.49486894 131.41364493 55.0078125 134.859375 C38.04144216 145.37579195 17.90212552 152.81422694 -2.25 148.90234375 C-4.84744363 148.19930234 -7.38098933 147.40683785 -9.9296875 146.546875 C-11.25976618 146.2007831 -12.59213573 145.86285627 -13.9296875 145.546875 C-14.6309375 146.36671875 -15.3321875 147.1865625 -16.0546875 148.03125 C-24.66446871 157.8751354 -24.66446871 157.8751354 -29.1171875 159.359375 C-34.63019762 161.54207697 -36.50964887 167.75429467 -38.98046875 172.75390625 C-44.711005 184.24641811 -44.711005 184.24641811 -49.83007812 186.31469727 C-51.9296875 186.546875 -51.9296875 186.546875 -53.57714844 185.46704102 C-54.10083008 184.91717529 -54.62451172 184.36730957 -55.1640625 183.80078125 C-55.73769531 183.21103516 -56.31132813 182.62128906 -56.90234375 182.01367188 C-57.78212891 181.07104492 -57.78212891 181.07104492 -58.6796875 180.109375 C-59.28167969 179.48482422 -59.88367188 178.86027344 -60.50390625 178.21679688 C-61.9906176 176.67108904 -63.461674 175.1103518 -64.9296875 173.546875 C-63.60762971 170.65448565 -62.48630807 169.07256212 -60.2421875 166.671875 C-53.64131624 159.17899411 -47.44962118 147.22876522 -47.8046875 137.109375 C-47.8459375 135.93375 -47.8871875 134.758125 -47.9296875 133.546875 C-50.8996875 134.536875 -50.8996875 134.536875 -53.9296875 135.546875 C-60.97872973 127.34648921 -64.75211462 118.67618777 -64.3046875 107.7421875 C-62.76231104 94.59985473 -57.36163032 82.07459888 -52.71411133 69.7824707 C-50.69249064 64.0208832 -49.9756053 58.40912159 -51.9296875 52.546875 C-52.2596875 51.886875 -52.5896875 51.226875 -52.9296875 50.546875 C-57.50346402 50.83881818 -60.47387402 51.69238567 -64.4296875 54.046875 C-68.30634941 56.30166815 -71.3258301 57.72394644 -75.9296875 57.546875 C-81.03737761 53.71610741 -83.01264889 48.7248417 -85.4296875 42.984375 C-86.74012129 39.98129757 -88.22635727 37.33414264 -89.9296875 34.546875 C-91.18181746 30.79048511 -91.95762917 27.40921466 -90.9296875 23.546875 C-86.93226011 19.38997577 -81.28180914 17.81148919 -75.8125 16.515625 C-73.68251329 15.68163213 -73.68251329 15.68163213 -73 13.18359375 C-71.59091625 9.71231079 -69.850358 8.7869001 -66.6796875 6.859375 C-65.74640625 6.27800781 -64.813125 5.69664062 -63.8515625 5.09765625 C-60.93014359 3.54711707 -58.09216289 2.49655326 -54.9296875 1.546875 C-55.5896875 -0.103125 -56.2496875 -1.753125 -56.9296875 -3.453125 C-38.40830832 -14.18896868 -17.01913593 -12.81602949 0 0 Z " fill="#FDFDFD" transform="translate(606.9296875,265.453125)"/>
<path d="M0 0 C6.63139871 4.0308502 7.66136199 8.76469445 9.50976562 15.99365234 C14.35461656 35.69225825 14.35461656 35.69225825 28 50 C32.85665258 52.11841066 37.61652754 53.03167372 42.875 53.4375 C46.0760769 53.70896942 46.84653801 53.88106696 49.5 55.9375 C52.91108308 60.62773924 52.66746973 65.36278287 52 71 C50.3637631 75.49965148 48.40328559 79.59671441 45 83 C36.81155224 82.18792254 29.8766409 71.84980649 25 66 C22 62.28216704 22 62.28216704 22 60 C20.35 59.67 18.7 59.34 17 59 C19.91690339 70.47315335 27.26809237 79.66917321 35.46875 88 C37.2903668 90.37925459 37.76573788 92.02630527 38 95 C35.29797894 100.40404212 30.99478685 104.62514402 26 108 C22.75 108.75 22.75 108.75 20 108 C10.77686393 97.93677208 9.30616432 82.92225033 7 70 C5.515 69.505 5.515 69.505 4 69 C3.5630155 82.00533113 3.29761466 93.68692673 8 106 C9.19334591 109.58003773 9.33543224 112.24315896 9 116 C5.60750744 119.76943618 1.51190652 119.88589385 -3.3125 120.25 C-7.46743724 119.96830934 -11.45975155 119.31411362 -15 117 C-16.09306129 113.98720941 -15.99488261 112.09169147 -15.0390625 109.06640625 C-14.81476562 108.33486328 -14.59046875 107.60332031 -14.359375 106.84960938 C-14.11703125 106.09486328 -13.8746875 105.34011719 -13.625 104.5625 C-13.15692519 103.06440342 -12.69072945 101.56571824 -12.2265625 100.06640625 C-11.91066162 99.0755603 -11.91066162 99.0755603 -11.58837891 98.06469727 C-10.3982661 93.88843835 -9.87694861 90.04178701 -9.90234375 85.69921875 C-9.90556641 84.72275391 -9.90878906 83.74628906 -9.91210938 82.74023438 C-9.92048828 81.73283203 -9.92886719 80.72542969 -9.9375 79.6875 C-9.94201172 78.66076172 -9.94652344 77.63402344 -9.95117188 76.57617188 C-9.96291816 74.05072118 -9.97934435 71.52539095 -10 69 C-10.99 69.33 -11.98 69.66 -13 70 C-13.80639234 72.10756539 -13.80639234 72.10756539 -14.2109375 74.70703125 C-14.40123535 75.68124023 -14.5915332 76.65544922 -14.78759766 77.65917969 C-14.98144043 78.69977539 -15.1752832 79.74037109 -15.375 80.8125 C-19.83255539 102.97408756 -19.83255539 102.97408756 -26 108 C-29.18421195 108.66646297 -31.15723082 108.45792083 -34.02734375 106.8984375 C-38.79919016 103.57502864 -41.75168189 100.37641287 -44 95 C-43.71388971 90.54383229 -42.03044223 88.59824745 -38.9375 85.5 C-31.98587374 78.07086586 -26.49096711 69.95135102 -24 60 C-24.99 60 -25.98 60 -27 60 C-28.82302828 62.12786252 -30.47723077 64.24300521 -32.125 66.5 C-43.66109216 81.73580335 -43.66109216 81.73580335 -51 83 C-51.9834496 81.56542672 -52.96160921 80.12722594 -53.9375 78.6875 C-54.75541016 77.48673828 -54.75541016 77.48673828 -55.58984375 76.26171875 C-57.83551885 72.6599296 -58.18219548 69.72682745 -58.25 65.5625 C-58.27578125 64.61503906 -58.3015625 63.66757812 -58.328125 62.69140625 C-57.93289293 59.44956227 -57.43214421 58.18793301 -55 56 C-51.890625 55.3125 -51.890625 55.3125 -48.25 55 C-38.27724449 53.77258394 -33.75164478 50.64775225 -27.203125 43.0078125 C-20.47286699 33.81933968 -17.18772757 23.47341695 -14.86035156 12.43383789 C-13.68933671 7.26076529 -12.2679228 4.46011407 -8 1 C-5.09704195 -0.45147903 -3.22738221 -0.37239025 0 0 Z " fill="#FDFDFD" transform="translate(827,529)"/>
<path d="M0 0 C4.3264548 2.54497341 6.14907391 4.58821269 7.625 9.375 C8.10495261 11.24458283 8.56062847 13.12046625 9 15 C12.41487145 28.9290809 16.13955086 42.88652153 29.125 50.9375 C33.78853575 52.58218082 38.90173566 52.81630661 43.79296875 53.27734375 C47.46103637 54.10388761 48.72844008 55.05618845 51 58 C53.32610396 64.97831187 52.32435099 70.00281996 49.25 76.5 C46.6991404 81.6017192 46.6991404 81.6017192 44.09375 83.0859375 C38.48062529 82.85554805 33.33987678 75.42219003 29.7109375 71.5703125 C26.91464327 68.45982791 24.24142543 65.31320055 21.6875 62 C20.073876 59.73510063 20.073876 59.73510063 17 59 C20.11539096 70.68271608 27.30009246 79.57814268 35.3125 88.4296875 C37.42722103 91.65072092 37.65802425 93.21390526 37 97 C35.1015625 99.73828125 35.1015625 99.73828125 32.625 102.3125 C31.81289063 103.17488281 31.00078125 104.03726563 30.1640625 104.92578125 C27.64779 107.33758756 26.61996366 107.90356121 23.1875 108.4375 C19.3928921 107.91667146 18.46665858 106.67359208 16.16625977 103.73657227 C9.66401706 94.0546689 8.58683582 80.26266397 7 69 C5.515 69.495 5.515 69.495 4 70 C0.21901114 81.34296657 3.84945238 95.08897892 7.6875 106 C8.89365139 109.47010401 9.70482998 112.29964261 9 116 C5.55821159 119.32706213 1.25141471 119.71572826 -3.3515625 120.08203125 C-7.55098482 119.95196065 -11.16618428 118.63909513 -15 117 C-16.40928944 111.57508463 -15.41695008 108.04169822 -13.625 102.9375 C-10.94528731 95.00878964 -9.85669539 88.52280668 -9.9375 80.1875 C-9.94201172 79.30384766 -9.94652344 78.42019531 -9.95117188 77.50976562 C-9.96290134 75.33981441 -9.98083505 73.16989828 -10 71 C-11.32 70.34 -12.64 69.68 -14 69 C-14.08636719 69.8971875 -14.17273438 70.794375 -14.26171875 71.71875 C-15.06607606 78.86203328 -16.23957455 85.62631989 -18.375 92.5 C-18.57182373 93.14517578 -18.76864746 93.79035156 -18.97143555 94.45507812 C-20.46924156 99.05858519 -22.34727825 102.97535536 -25 107 C-29.16095442 108.46403952 -31.0686763 108.43715194 -35.0625 106.5625 C-39.14501926 103.00115341 -43.54456676 99.05045391 -44.375 93.48828125 C-43.89838309 90.32572946 -42.89033897 89.35452334 -40.625 87.125 C-36.87502014 83.12725362 -33.6941171 78.96307106 -30.625 74.4375 C-30.19654785 73.82471191 -29.7680957 73.21192383 -29.32666016 72.58056641 C-26.37458819 68.16010631 -25.04813532 64.21188167 -24 59 C-29.58457724 61.5384442 -32.43494817 66.23601092 -36 71 C-39.86803592 75.96053461 -43.73805385 79.52711554 -49 83 C-53.24486463 81.48397692 -54.82691978 78.83910839 -57 75 C-59.17121389 69.5202697 -59.36680894 64.68768883 -58 59 C-57.34 58.01 -56.68 57.02 -56 56 C-52.83984375 55.48046875 -52.83984375 55.48046875 -48.9375 55.1875 C-39.34770582 54.16665462 -34.08632726 50.6700883 -27.8125 43.5 C-20.80933413 34.1624455 -17.50001998 23.33266995 -14.82348633 12.12890625 C-13.68166633 7.57176227 -12.42034643 4.41379405 -9 1 C-5.61670875 -0.12776375 -3.54843366 -0.41746278 0 0 Z " fill="#FDFDFD" transform="translate(493,866)"/>
<path d="M0 0 C2.72317473 4.26685063 3.61008717 8.61546166 4.76953125 13.50390625 C8.14323884 26.6172954 11.98968927 39.29512693 23.95703125 47.06640625 C28.04667097 48.77661922 31.71826323 49.12556484 36.08203125 49.44140625 C40.47810783 49.81610989 42.89326026 50.70614129 45.95703125 54.06640625 C48.13520002 60.60091255 47.6219985 66.40600203 44.58203125 72.56640625 C43.1855782 75.14698615 42.03690172 76.98653578 39.95703125 79.06640625 C35.70049801 79.0074923 33.53282455 77.11120502 30.60522461 74.16723633 C29.8512439 73.37482544 29.8512439 73.37482544 29.08203125 72.56640625 C28.55681885 72.02975342 28.03160645 71.49310059 27.49047852 70.94018555 C23.78490948 67.09642146 20.44768681 63.07229387 17.359375 58.7109375 C15.95678045 56.77927853 15.95678045 56.77927853 12.95703125 56.06640625 C13.44566408 61.11306721 15.17939362 64.61648029 17.95703125 68.75390625 C18.35277344 69.35895996 18.74851562 69.96401367 19.15625 70.58740234 C22.50678734 75.61452955 26.22679312 80.21484949 30.20703125 84.76171875 C31.91465092 87.01059286 32.72816372 88.27422238 32.95703125 91.06640625 C30.50805225 96.576609 27.21287195 100.95468466 21.95703125 104.06640625 C18.26953125 104.69140625 18.26953125 104.69140625 14.95703125 104.06640625 C5.08722529 96.0577637 4.0790961 77.85038647 1.95703125 66.06640625 C0.47203125 66.56140625 0.47203125 66.56140625 -1.04296875 67.06640625 C-1.53699435 83.79701062 -1.53699435 83.79701062 1.95703125 100.06640625 C2.54638708 101.91866744 3.12998165 103.77277437 3.70703125 105.62890625 C3.97 106.41394531 4.23296875 107.19898438 4.50390625 108.0078125 C4.95703125 110.06640625 4.95703125 110.06640625 3.95703125 113.06640625 C-2.12478205 116.56021389 -8.36900694 117.2327837 -15.203125 115.52734375 C-17.10546875 114.81640625 -17.10546875 114.81640625 -20.04296875 113.06640625 C-21.73372374 108.7984433 -20.08559316 105.26490089 -18.66796875 101.12890625 C-18.19948324 99.72473677 -17.73328077 98.31980322 -17.26953125 96.9140625 C-17.05893066 96.29539307 -16.84833008 95.67672363 -16.63134766 95.03930664 C-15.4220722 90.98447056 -14.91938066 87.21126418 -14.9453125 82.984375 C-14.94853516 82.05302734 -14.95175781 81.12167969 -14.95507812 80.16210938 C-14.96345703 79.20240234 -14.97183594 78.24269531 -14.98046875 77.25390625 C-14.98498047 76.27486328 -14.98949219 75.29582031 -14.99414062 74.28710938 C-15.00588191 71.88014514 -15.02230456 69.47330768 -15.04296875 67.06640625 C-16.03296875 66.73640625 -17.02296875 66.40640625 -18.04296875 66.06640625 C-18.16824951 66.70030273 -18.29353027 67.33419922 -18.42260742 67.98730469 C-24.61614368 98.9184708 -24.61614368 98.9184708 -31.04296875 104.06640625 C-34.70022436 104.78351519 -36.98453171 104.74225229 -40.171875 102.70703125 C-44.16303387 99.38474063 -47.52736089 96.15451835 -49.04296875 91.06640625 C-47.94349978 86.43114503 -46.25306909 83.84481687 -42.91796875 80.50390625 C-36.51516519 73.65560018 -30.07397721 65.63187358 -29.04296875 56.06640625 C-32.90830786 57.58648343 -34.72045386 59.87823122 -37.23046875 63.12890625 C-40.29165096 66.9566448 -43.39495427 70.65724427 -46.79296875 74.19140625 C-47.83710937 75.27808594 -47.83710937 75.27808594 -48.90234375 76.38671875 C-51.3135306 78.27870843 -53.0291192 78.71865438 -56.04296875 79.06640625 C-61.86110587 72.44576746 -63.36833114 67.22787176 -63.44140625 58.6171875 C-62.96006012 55.53562844 -62.33256145 54.19001568 -60.04296875 52.06640625 C-57.40625 51.59765625 -57.40625 51.59765625 -54.35546875 51.56640625 C-45.31232844 51.05494103 -40.07900948 47.87930683 -33.921875 41.3125 C-25.84189744 31.65348316 -22.47801152 20.0392213 -19.54296875 8.00390625 C-18.27591605 3.20055959 -16.69570353 0.45186775 -13.04296875 -2.93359375 C-8.65208021 -5.27540097 -3.4155356 -3.2326771 0 0 Z " fill="#FDFDFD" transform="translate(663.04296875,697.93359375)"/>
<path d="M0 0 C5.75676503 4.21809051 6.48864702 9.4602924 7.9375 16.0625 C11.09016315 29.17266546 15.00049623 40.70251831 25.9375 49.3125 C30.68584417 51.84708912 36.30268281 51.88865791 41.57421875 52.3125 C45.4353268 53.08736319 46.66677802 53.88903736 49 57 C51.18157869 62.94976006 51.33066858 67.10270224 49 73 C47.37582269 76.36059451 45.66043223 79.33956777 43 82 C35.11618144 81.23283753 28.69825359 71.66169293 24 66 C23.195625 65.05125 22.39125 64.1025 21.5625 63.125 C20 61 20 61 20 59 C18.68 59 17.36 59 16 59 C19.12328634 70.71232379 26.3102713 79.61550321 34.41015625 88.4296875 C36 91 36 91 35.9921875 94.01953125 C34.86542196 97.40426396 33.49953437 99.22562988 31.0625 101.8125 C30.35222656 102.58207031 29.64195312 103.35164062 28.91015625 104.14453125 C26.30670109 106.67344986 25.30565975 106.96603781 21.625 107.375 C18 107 18 107 15.9296875 104.859375 C8.98536771 94.56941126 7.28542629 80.97614447 5 69 C3.515 69.495 3.515 69.495 2 70 C1.54157643 82.54297812 2.13701448 92.97372431 6 105 C6.88379699 108.04888819 7.52729724 110.84864825 8 114 C5.70548297 116.8513735 3.52456856 118.02511933 0 119 C-6.08301622 119.58999154 -10.71332106 119.38889676 -16 116 C-16.33 115.67 -16.66 115.34 -17 115 C-16.65088903 108.13415093 -14.9591994 101.98534511 -12.9375 95.4296875 C-10.57155992 86.77429003 -10.14826814 77.79572633 -12 69 C-12.99 68.67 -13.98 68.34 -15 68 C-15.23783203 69.56234375 -15.23783203 69.56234375 -15.48046875 71.15625 C-16.70803171 78.83573945 -18.18319233 86.31803756 -20.5 93.75 C-20.70133545 94.40419922 -20.9026709 95.05839844 -21.11010742 95.73242188 C-22.32405264 99.4760283 -23.74790826 102.76561293 -26 106 C-29.37192873 107.68596436 -31.23622601 107.59742444 -35 107 C-38.82487486 103.94502748 -42.78736846 100.42526307 -45 96 C-45.39765967 92.37576001 -45.38304993 90.57955546 -43.34765625 87.5 C-42.59355469 86.675 -41.83945312 85.85 -41.0625 85 C-37.39464121 80.7517838 -34.11729665 76.45918931 -31.0625 71.75 C-30.68552979 71.18410156 -30.30855957 70.61820313 -29.92016602 70.03515625 C-27.39258525 66.08584727 -26.09132092 62.502413 -25 58 C-28.82862097 60.04939952 -31.1128502 62.08309257 -33.6875 65.5625 C-45.03536974 80.17718072 -45.03536974 80.17718072 -50.80078125 81.77734375 C-51.52652344 81.85082031 -52.25226562 81.92429687 -53 82 C-53.98635837 80.58833114 -54.96381255 79.17043816 -55.9375 77.75 C-56.48277344 76.96109375 -57.02804687 76.1721875 -57.58984375 75.359375 C-59.72298007 71.79036021 -60.1644117 68.67787099 -60.25 64.5625 C-60.27578125 63.82128906 -60.3015625 63.08007812 -60.328125 62.31640625 C-59.88616248 59.19636134 -58.99518959 57.43997708 -57 55 C-54.36328125 54.43359375 -54.36328125 54.43359375 -51.3125 54.4375 C-44.17634673 54.11861392 -39.71785993 52.39430518 -34.375 47.6875 C-33.59125 46.800625 -32.8075 45.91375 -32 45 C-31.52949219 44.53207031 -31.05898438 44.06414063 -30.57421875 43.58203125 C-22.44529775 35.0750209 -19.32802308 23.83284117 -16.91186523 12.62402344 C-15.65062234 7.16907675 -14.01677391 3.95488217 -10 0 C-6.1544104 -1.2818632 -3.93271581 -0.94927623 0 0 Z " fill="#FDFDFD" transform="translate(826,864)"/>
<path d="M0 0 C5.07294785 2.76706247 6.30459439 6.76514181 8 12 C9.10405931 15.953488 10.06590699 19.94106099 11.01757812 23.93359375 C13.80347006 35.05912982 19.21471637 44.74256713 29.1875 51 C34.01508052 52.26625063 38.82380135 52.75975786 43.79296875 53.1796875 C47.78539199 54.20089198 48.8567872 55.54932484 51 59 C53.00227685 65.8077413 50.98437929 71.73569557 48.08203125 77.97265625 C47.125 79.625 47.125 79.625 45 82 C42.23327824 82.35931451 40.5996711 82.33652429 38.1484375 80.9609375 C33.06306059 76.41322159 28.93249971 71.33512842 24.85693359 65.88818359 C22.49555687 62.75658716 20.31296417 60.13639745 17 58 C18.31735467 67.88016004 23.58750233 74.84929023 29.78515625 82.4453125 C30.47738281 83.30431152 30.47738281 83.30431152 31.18359375 84.18066406 C32.08460374 85.28778328 33.00210709 86.38173459 33.9375 87.45996094 C36.20518267 90.23098438 37.01539949 91.59017492 36.87890625 95.22265625 C35.18703778 100.56896063 31.41829158 104.02907865 26.8671875 107.10546875 C25 108 25 108 21.3125 108.1875 C16.98718681 106.63691603 16.25500305 104.9608836 14 101 C12.93947907 98.31657628 12.13842879 95.59340578 11.375 92.8125 C11.16335205 92.06653564 10.9517041 91.32057129 10.73364258 90.55200195 C8.76209258 83.44967125 7 76.40103264 7 69 C5.68 69 4.36 69 3 69 C2.59410132 83.67687995 3.13220722 96.26901943 8.546875 110.09765625 C9.12852456 112.53958154 9.05132045 113.70830586 8 116 C4.12683633 119.14694548 0.89695374 119.40666134 -4 119.375 C-5.794375 119.38660156 -5.794375 119.38660156 -7.625 119.3984375 C-11.33306553 118.96067976 -13.2529953 118.54930361 -16 116 C-16.78895818 110.58337113 -15.32688914 106.10291747 -13.5625 101.0625 C-10.15657845 91.22635122 -8.26282882 80.26439194 -11 70 C-11.99 70 -12.98 70 -14 70 C-14.23074219 71.29292969 -14.46148437 72.58585938 -14.69921875 73.91796875 C-19.35097836 99.08692136 -19.35097836 99.08692136 -25.375 106.375 C-28 108 -28 108 -31.375 108.25 C-37.24886669 106.22452873 -40.6142281 102.07865785 -44 97 C-44.6875 93.9375 -44.6875 93.9375 -44 90 C-42.02501927 87.45163777 -39.83599636 85.20274028 -37.59765625 82.8828125 C-34.72448011 79.69423507 -32.34101005 76.39969324 -30 72.8125 C-29.61465088 72.24265381 -29.22930176 71.67280762 -28.83227539 71.08569336 C-26.27839245 67.09499922 -25.38198884 63.69726901 -25 59 C-28.95755681 60.3191856 -30.39220949 62.88051904 -32.75 66.125 C-37.23955227 72.13598884 -41.69927738 77.79951825 -48 82 C-50.375 82.125 -50.375 82.125 -53 81 C-56.72187236 76.34246141 -59.12672282 71.64503559 -59.25 65.625 C-59.28867187 64.49964844 -59.28867187 64.49964844 -59.328125 63.3515625 C-58.88456012 60.17268086 -58.06548028 58.46839738 -56 56 C-52.92578125 55.25 -52.92578125 55.25 -49.3125 55 C-39.4128084 53.87064155 -34.2071128 50.12418974 -27.875 42.54296875 C-21.55938526 33.97741626 -18.74374602 24.46582767 -16.09130859 14.29785156 C-13.29796614 3.72347461 -13.29796614 3.72347461 -9.25 0.6875 C-5.9789382 -0.31199111 -3.40257412 -0.3581657 0 0 Z " fill="#FDFDFD" transform="translate(488,532)"/>
<path d="M0 0 C5.35152885 0.32433508 8.28280043 3.49704824 12 7 C11.2578125 10.78125 11.2578125 10.78125 8.9375 12.75 C7.9784375 13.36875 7.9784375 13.36875 7 14 C8.43791516 13.85831863 9.8753237 13.71148957 11.3125 13.5625 C12.11300781 13.48128906 12.91351562 13.40007812 13.73828125 13.31640625 C16.16087179 13.04734307 16.16087179 13.04734307 19 12 C19.28330167 15.70810411 19.43113797 19.29985385 19 23 C16.875 25.1875 16.875 25.1875 14 26 C12 26 10 26 8 26 C5.65175298 26.9644586 3.31808364 27.96514123 1 29 C-0.98821313 29.39764263 -2.98732362 29.75455166 -5 30 C-3.78571012 31.44388571 -3.78571012 31.44388571 -0.18359375 31.09765625 C1.39846682 31.09098089 2.98051159 31.07901875 4.5625 31.0625 C5.36880859 31.05798828 6.17511719 31.05347656 7.00585938 31.04882812 C9.00393756 31.03700518 11.00197783 31.01906914 13 31 C10.89245601 35.91412486 7.72140658 37.74388483 3 40 C-4.57973445 42.81116525 -11.32816168 43.98837565 -19 41 C-25.38488976 37.64164854 -30.67422027 33.80240992 -33.125 26.7734375 C-33.70959105 24.50292762 -34.29291916 22.23209221 -34.875 19.9609375 C-36.09571108 16.74809375 -37.08328694 15.71356892 -40 14 C-39.75 11.625 -39.75 11.625 -39 9 C-36.17251285 7.16275614 -33.96073455 6.74812618 -30.625 6.8125 C-29.89539063 6.81894531 -29.16578125 6.82539063 -28.4140625 6.83203125 C-26 7 -26 7 -23.15625 7.5 C-19.68985205 8.04913235 -16.38364158 8.16855485 -12.875 8.1875 C-11.07675781 8.20876953 -11.07675781 8.20876953 -9.2421875 8.23046875 C-6.16518477 8.01174205 -4.48354149 7.78320633 -2 6 C-0.70768358 2.95800528 -0.70768358 2.95800528 0 0 Z " fill="#FBFBFB" transform="translate(710,250)"/>
<path d="M0 0 C1.33224609 0.36351562 1.33224609 0.36351562 2.69140625 0.734375 C14.66662533 3.90691438 26.78076916 6.002008 39 8 C38.67841919 8.90661377 38.67841919 8.90661377 38.3503418 9.83154297 C36.27657876 16.10173304 35.61151828 21.54929044 35.8125 28.125 C35.82603516 28.98609375 35.83957031 29.8471875 35.85351562 30.734375 C35.88832933 32.82319727 35.9421105 34.91168985 36 37 C30.87482967 35.44817988 26.21740912 33.28754984 21.42578125 30.9375 C20.62013229 30.54554443 19.81448334 30.15358887 18.98442078 29.74975586 C17.29009947 28.92446288 15.59665775 28.09736194 13.90405273 27.26855469 C11.31256517 26.0000319 8.7180525 24.7378702 6.12304688 23.4765625 C4.47377627 22.67224822 2.82468155 21.86757316 1.17578125 21.0625 C0.4007576 20.68536865 -0.37426605 20.3082373 -1.17277527 19.91967773 C-1.89395035 19.56591064 -2.61512543 19.21214355 -3.3581543 18.84765625 C-3.99069626 18.53836182 -4.62323822 18.22906738 -5.27494812 17.91040039 C-7 17 -7 17 -10 15 C-10 14.34 -10 13.68 -10 13 C-9.278125 12.484375 -8.55625 11.96875 -7.8125 11.4375 C-4.06036355 8.18564841 -2.205642 4.39251258 0 0 Z " fill="#FBFBFB" transform="translate(504,350)"/>
<path d="M0 0 C3.03278067 1.51639033 3.61513595 3.98942599 5 7 C5.495 8.485 5.495 8.485 6 10 C11.20684351 12.67017616 16.47087462 12.52228416 22 11 C25.88146153 8.94629008 29.42097789 6.53514066 33 4 C33.66 3.67 34.32 3.34 35 3 C33.05589436 8.42729492 29.95280191 13.00073817 26.875 17.84375 C25.26895724 20.54725532 24.11977655 23.07916693 23 26 C22.34217529 25.92894043 21.68435059 25.85788086 21.0065918 25.78466797 C6.66114 24.29011616 -6.7259327 23.78828516 -21 26 C-21.53109375 24.98679688 -22.0621875 23.97359375 -22.609375 22.9296875 C-23.32274694 21.57803541 -24.03629817 20.22647793 -24.75 18.875 C-25.09804688 18.20984375 -25.44609375 17.5446875 -25.8046875 16.859375 C-27.9905431 12.73053664 -30.3423394 8.84283357 -33 5 C-32.67 4.34 -32.34 3.68 -32 3 C-31.38125 3.556875 -30.7625 4.11375 -30.125 4.6875 C-24.91384721 8.54375307 -19.67583024 11.64907144 -13.1875 12.5 C-8.0718596 11.6975466 -5.85168959 10.13558612 -2.75 6 C-0.91748567 3.09389561 -0.91748567 3.09389561 0 0 Z " fill="#FAFAFA" transform="translate(576,227)"/>
<path d="M0 0 C0.66 0 1.32 0 2 0 C3.15082685 2.24756784 4.29576858 4.49781748 5.4375 6.75 C5.76298828 7.38421875 6.08847656 8.0184375 6.42382812 8.671875 C14.46703991 24.59245916 8.81551608 41.88457956 3.77734375 57.890625 C0.71298747 67.8635121 -0.63367461 77.00739482 3 87 C-4.62236513 80.22456433 -7.3021409 72.01581018 -8.29296875 62.0546875 C-8.83994749 49.54809256 -5.2021008 37.62744078 -1.77734375 25.70703125 C0.69626298 17.00951083 2.51515175 8.89504886 0 0 Z " fill="#0F0F0F" transform="translate(593,281)"/>
<path d="M0 0 C4.68160093 2.47757512 8.65258996 5.32984836 12.58984375 8.86328125 C12.25984375 10.18328125 11.92984375 11.50328125 11.58984375 12.86328125 C6.10894025 12.96221453 0.6285573 13.0347799 -4.85302734 13.08300781 C-6.71737726 13.10311386 -8.58166419 13.13040305 -10.44580078 13.16503906 C-13.12678573 13.21360246 -15.80693648 13.23625963 -18.48828125 13.25390625 C-19.3207135 13.27455139 -20.15314575 13.29519653 -21.01080322 13.31646729 C-26.8488132 13.3187271 -26.8488132 13.3187271 -29.90527344 10.83886719 C-30.40188477 10.18692383 -30.89849609 9.53498047 -31.41015625 8.86328125 C-31.74015625 8.86328125 -32.07015625 8.86328125 -32.41015625 8.86328125 C-32.84510087 4.42684609 -32.95016821 2.53464747 -30.09765625 -1.01171875 C-21.71659498 -7.63860441 -8.86772712 -4.1823478 0 0 Z " fill="#F5F5F5" transform="translate(662.41015625,444.13671875)"/>
<path d="M0 0 C4.59155846 1.58617474 6.31173332 3.93596663 8.4375 8.1875 C9.68967935 21.94094534 6.05978205 32.52645175 -2.5625 43.1875 C-3.2225 43.8475 -3.8825 44.5075 -4.5625 45.1875 C-6.6875 44.8125 -6.6875 44.8125 -8.5625 44.1875 C-8.6864816 38.88566541 -8.77701776 33.58468206 -8.8371582 28.28173828 C-8.86223866 26.47950534 -8.89631188 24.67737349 -8.93969727 22.87548828 C-9.0006375 20.27871723 -9.02877346 17.68329535 -9.05078125 15.0859375 C-9.07658768 14.2857016 -9.1023941 13.4854657 -9.12898254 12.66098022 C-9.13101151 8.57604381 -8.7957413 5.93143871 -6.25463867 2.64306641 C-3.5625 0.1875 -3.5625 0.1875 0 0 Z " fill="#F6F6F6" transform="translate(492.5625,315.8125)"/>
<path d="M0 0 C4.37684327 2.58239504 8.40251726 5.40251726 12 9 C11.625 11.125 11.625 11.125 11 13 C6.26775624 13.04963625 1.53566585 13.08583097 -3.19677734 13.10986328 C-4.80487713 13.11988763 -6.41295885 13.13351066 -8.02099609 13.15087891 C-10.33956376 13.17528488 -12.65788929 13.18651886 -14.9765625 13.1953125 C-15.68930328 13.20563507 -16.40204407 13.21595764 -17.13638306 13.22659302 C-21.45722217 13.22755254 -25.05321045 12.81123402 -29 11 C-29.33 10.01 -29.66 9.02 -30 8 C-30.99 8.33 -31.98 8.66 -33 9 C-33.43494462 4.56356484 -33.54001196 2.67136622 -30.6875 -0.875 C-22.1897912 -7.59411859 -9.07124918 -3.90709234 0 0 Z " fill="#F1F1F1" transform="translate(539,444)"/>
<path d="M0 0 C5.15310716 2.65846714 10.32736342 5.41355574 14 10 C13.60302734 12.12866211 13.60302734 12.12866211 13 14 C8.26775624 14.04963625 3.53566585 14.08583097 -1.19677734 14.10986328 C-2.80487713 14.11988763 -4.41295885 14.13351066 -6.02099609 14.15087891 C-8.33956376 14.17528488 -10.65788929 14.18651886 -12.9765625 14.1953125 C-13.68930328 14.20563507 -14.40204407 14.21595764 -15.13638306 14.22659302 C-19.47428176 14.22755632 -23.00004974 13.69661021 -27 12 C-28.33333333 10.66666667 -29.66666667 9.33333333 -31 8 C-30.91412516 4.04975747 -30.4874858 2.47465723 -27.625 -0.3125 C-19.55411184 -5.5009281 -8.42447191 -3.60857157 0 0 Z " fill="#F1F1F1" transform="translate(780,443)"/>
<path d="M0 0 C-3.72315209 3.06039203 -7.8715919 5.16055374 -12.125 7.375 C-12.8876416 7.77348145 -13.6502832 8.17196289 -14.43603516 8.58251953 C-15.94674038 9.37044843 -17.45827363 10.15679217 -18.97070312 10.94140625 C-20.63884555 11.81160181 -22.29738732 12.70017728 -23.953125 13.59375 C-32.68864185 18.2151202 -40.83359794 20.24717145 -50.6875 20.3125 C-51.38818604 20.31805908 -52.08887207 20.32361816 -52.81079102 20.3293457 C-57.80831904 20.26058047 -62.19050458 19.35486347 -67 18 C-65.44298069 13.32894208 -62.91552627 9.91294315 -60 6 C-58.329375 6.2475 -58.329375 6.2475 -56.625 6.5 C-54.75169368 6.68473283 -52.87626141 6.84819124 -51 7 C-49.80503906 7.103125 -48.61007812 7.20625 -47.37890625 7.3125 C-33.61775681 8.08004097 -20.9995208 4.37752718 -7.85229492 0.64257812 C-5.12449605 0.02804704 -2.78354174 -0.12528974 0 0 Z " fill="#121212" transform="translate(670,382)"/>
<path d="M0 0 C0.66 0 1.32 0 2 0 C1.96519531 0.84820312 1.93039062 1.69640625 1.89453125 2.5703125 C1.74214649 9.1736521 2.00638935 14.81336051 3.5625 21.25 C5.41532396 29.17547664 5.82547147 35.41538165 1.5625 42.5625 C-0.62974203 45.81487102 -0.62974203 45.81487102 -3 47 C-2.95359375 46.46375 -2.9071875 45.9275 -2.859375 45.375 C-2.59346323 39.60091581 -3.51304438 34.60262107 -5.0625 29.0625 C-7.57917409 19.70955248 -7.94000074 12.88108239 -3.0625 4.3125 C-1.47265625 1.80078125 -1.47265625 1.80078125 0 0 Z " fill="#141414" transform="translate(564,339)"/>
<path d="M0 0 C1.76150391 -0.02126953 1.76150391 -0.02126953 3.55859375 -0.04296875 C6.5625 0.1875 6.5625 0.1875 8.5625 2.1875 C8.24534294 8.06710389 5.90503469 14.35939434 2.5625 19.1875 C0.4296875 20.9140625 0.4296875 20.9140625 -1.4375 22.1875 C-4.6646265 15.14974442 -7.18203074 8.97931235 -7.4375 1.1875 C-5.56506019 -0.68493981 -2.50090482 0.01369608 0 0 Z " fill="#FCFCFC" transform="translate(792.4375,878.8125)"/>
<path d="M0 0 C1.79244141 0.01740234 1.79244141 0.01740234 3.62109375 0.03515625 C5.41740234 0.04869141 5.41740234 0.04869141 7.25 0.0625 C8.17683594 0.07410156 9.10367188 0.08570313 10.05859375 0.09765625 C11.16015625 1.76171875 11.16015625 1.76171875 12.05859375 4.09765625 C10.78587958 10.20299523 8.06992254 16.30994125 4.05859375 21.09765625 C3.06859375 21.09765625 2.07859375 21.09765625 1.05859375 21.09765625 C-4.77831612 7.23499531 -4.77831612 7.23499531 -3.94140625 1.09765625 C-2.94140625 0.09765625 -2.94140625 0.09765625 0 0 Z " fill="#FBFBFB" transform="translate(622.94140625,709.90234375)"/>
<path d="M0 0 C1.79244141 0.01740234 1.79244141 0.01740234 3.62109375 0.03515625 C5.41740234 0.04869141 5.41740234 0.04869141 7.25 0.0625 C8.17683594 0.07410156 9.10367188 0.08570313 10.05859375 0.09765625 C11.16015625 1.76171875 11.16015625 1.76171875 12.05859375 4.09765625 C10.78587958 10.20299523 8.06992254 16.30994125 4.05859375 21.09765625 C3.06859375 21.09765625 2.07859375 21.09765625 1.05859375 21.09765625 C-4.77831612 7.23499531 -4.77831612 7.23499531 -3.94140625 1.09765625 C-2.94140625 0.09765625 -2.94140625 0.09765625 0 0 Z " fill="#FCFCFC" transform="translate(791.94140625,544.90234375)"/>
<path d="M0 0 C2.31243792 -0.02685412 4.6249627 -0.04632841 6.9375 -0.0625 C8.22527344 -0.07410156 9.51304687 -0.08570313 10.83984375 -0.09765625 C14 0 14 0 15 1 C14.77706675 8.02239746 13.23268435 14.24993824 9 20 C6.83203125 20.78125 6.83203125 20.78125 5 21 C2.36787266 14.87966506 -0.26571733 8.68053253 -1 2 C-0.67 1.34 -0.34 0.68 0 0 Z " fill="#FCFCFC" transform="translate(454,882)"/>
<path d="M0 0 C1.93166016 0.01740234 1.93166016 0.01740234 3.90234375 0.03515625 C5.19269531 0.04417969 6.48304688 0.05320312 7.8125 0.0625 C8.81152344 0.07410156 9.81054688 0.08570313 10.83984375 0.09765625 C12.17998933 4.53484559 11.43326174 6.97008835 9.58984375 11.16015625 C9.1515625 12.18238281 8.71328125 13.20460938 8.26171875 14.2578125 C6.96982753 16.83804578 5.80447691 18.98618196 3.83984375 21.09765625 C2.84984375 21.09765625 1.85984375 21.09765625 0.83984375 21.09765625 C-0.00565263 18.8933264 -0.83658439 16.68517092 -1.66015625 14.47265625 C-2.35625 12.62800781 -2.35625 12.62800781 -3.06640625 10.74609375 C-4.10748738 7.27334456 -4.46226846 4.69063356 -4.16015625 1.09765625 C-3.16015625 0.09765625 -3.16015625 0.09765625 0 0 Z " fill="#FCFCFC" transform="translate(452.16015625,547.90234375)"/>
<path d="M0 0 C1.1859375 0.00257813 2.371875 0.00515625 3.59375 0.0078125 C4.7796875 0.00523437 5.965625 0.00265625 7.1875 0 C10.09375 0.1328125 10.09375 0.1328125 11.09375 1.1328125 C10.83828074 8.92462485 8.3208765 15.09505692 5.09375 22.1328125 C0.10338076 17.97417147 -2.08297343 13.33591649 -3.90625 7.1328125 C-4.21875 3.5703125 -4.21875 3.5703125 -3.90625 1.1328125 C-2.90625 0.1328125 -2.90625 0.1328125 0 0 Z " fill="#FBFBFB" transform="translate(843.90625,878.8671875)"/>
<path d="M0 0 C1.08152344 -0.01417969 2.16304687 -0.02835938 3.27734375 -0.04296875 C6.0625 0.1875 6.0625 0.1875 8.0625 2.1875 C7.7737551 8.82863261 5.25766821 14.96955842 3.0625 21.1875 C2.0725 21.1875 1.0825 21.1875 0.0625 21.1875 C-4.79797552 15.50492624 -7.45872795 8.65843399 -6.9375 1.1875 C-5.13003866 -0.61996134 -2.43304219 0.01446517 0 0 Z " fill="#FBFBFB" transform="translate(680.9375,709.8125)"/>
<path d="M0 0 C1.79244141 0.01740234 1.79244141 0.01740234 3.62109375 0.03515625 C5.41740234 0.04869141 5.41740234 0.04869141 7.25 0.0625 C8.17683594 0.07410156 9.10367188 0.08570313 10.05859375 0.09765625 C11.69063866 5.05242734 10.23864484 8.68420412 8.62109375 13.41015625 C8.37810547 14.15072266 8.13511719 14.89128906 7.88476562 15.65429688 C7.28659797 17.4722574 6.67401516 19.2854638 6.05859375 21.09765625 C4.2265625 20.87890625 4.2265625 20.87890625 2.05859375 20.09765625 C-2.1740906 14.34759449 -3.718473 8.12005371 -3.94140625 1.09765625 C-2.94140625 0.09765625 -2.94140625 0.09765625 0 0 Z " fill="#FCFCFC" transform="translate(846.94140625,544.90234375)"/>
<path d="M0 0 C2.14576637 -0.02685938 4.29162645 -0.04633088 6.4375 -0.0625 C7.63246094 -0.07410156 8.82742188 -0.08570313 10.05859375 -0.09765625 C13 0 13 0 14 1 C14.76060622 7.84545597 12.34009464 13.63786771 10 20 C8.68 20 7.36 20 6 20 C3.15302941 17.12538892 2.01910292 13.78836694 0.75 10 C0.39421875 8.96875 0.0384375 7.9375 -0.328125 6.875 C-0.9907779 4.03946201 -1.00586171 2.68229789 0 0 Z " fill="#FDFDFD" transform="translate(509,882)"/>
<path d="M0 0 C1.1859375 0.00257813 2.371875 0.00515625 3.59375 0.0078125 C4.7796875 0.00523437 5.965625 0.00265625 7.1875 0 C10.09375 0.1328125 10.09375 0.1328125 11.09375 1.1328125 C10.6930871 8.21119042 8.47335102 14.49206547 6.09375 21.1328125 C4.26171875 20.94921875 4.26171875 20.94921875 2.09375 20.1328125 C-1.66791345 14.36357665 -3.65280255 7.9758937 -3.90625 1.1328125 C-2.90625 0.1328125 -2.90625 0.1328125 0 0 Z " fill="#FDFDFD" transform="translate(506.90625,547.8671875)"/>
<path d="M0 0 C2.3125 0.125 2.3125 0.125 5 1 C7.28384181 4.27350659 8.04792688 6.18524308 7.8125 10.1875 C7 13 7 13 5 16 C4.34 16 3.68 16 3 16 C3 12.7 3 9.4 3 6 C1.68 5.67 0.36 5.34 -1 5 C-1.66 4.67 -2.32 4.34 -3 4 C-2.01 2.68 -1.02 1.36 0 0 Z " fill="#2C2C2C" transform="translate(571,267)"/>
<path d="M0 0 C1.65 0.33 3.3 0.66 5 1 C5.33 1.99 5.66 2.98 6 4 C2.98968256 4.93423645 2.13349732 5.04449911 -1 4 C-1.33 4.99 -1.66 5.98 -2 7 C-2.99 6.67 -3.98 6.34 -5 6 C-3.35 4.02 -1.7 2.04 0 0 Z " fill="#323232" transform="translate(544,278)"/>
<path d="M0 0 C5.11365014 1.0681847 10.07227969 2.23107476 15 4 C14.67 4.99 14.34 5.98 14 7 C9.0276578 5.50829734 4.58154261 3.39542583 0 1 C0 0.67 0 0.34 0 0 Z " fill="#373737" transform="translate(755,390)"/>
<path d="M0 0 C0.66 0 1.32 0 2 0 C2.8353125 0.928125 2.8353125 0.928125 3.6875 1.875 C6.58753997 4.53990159 9.20771415 5.12485711 13 6 C13 6.66 13 7.32 13 8 C2.91482812 6.16829143 2.91482812 6.16829143 0 3 C0 2.01 0 1.02 0 0 Z " fill="#4A4A4A" transform="translate(527,308)"/>
<path d="M0 0 C2.475 0.99 2.475 0.99 5 2 C4.53816182 6.15654359 4.11990898 8.21466571 1 11 C1.01160156 10.37351562 1.02320313 9.74703125 1.03515625 9.1015625 C1.04417969 8.28429687 1.05320312 7.46703125 1.0625 6.625 C1.07990234 5.40683594 1.07990234 5.40683594 1.09765625 4.1640625 C1.14466334 1.95062858 1.14466334 1.95062858 0 0 Z " fill="#434343" transform="translate(525,292)"/>
<path d="M0 0 C-1.01409778 2.53524446 -1.61497266 3.77139002 -4 5.1875 C-4.66 5.455625 -5.32 5.72375 -6 6 C-6.99 6.495 -6.99 6.495 -8 7 C-6.47663111 3.31852519 -4.31953005 0 0 0 Z " fill="#EBEBEB" transform="translate(664,268)"/>
</svg>
