<svg version="1.1" xmlns="http://www.w3.org/2000/svg" width="180" height="180">
  <path d="M0 0 C0.99 0 1.98 0 3 0 C4.41943359 1.77807617 4.41943359 1.77807617 5.8984375 4.29296875 C6.45345947 5.22246338 7.00848145 6.15195801 7.58032227 7.10961914 C8.17256592 8.12531982 8.76480957 9.14102051 9.375 10.1875 C10.6410257 12.31564066 11.90797214 14.4432338 13.17578125 16.5703125 C13.81596191 17.65086914 14.45614258 18.73142578 15.11572266 19.84472656 C17.86960443 24.45617616 20.7153165 29.00831445 23.5625 33.5625 C29.18816773 42.60626241 34.62403724 51.75502012 40.01953125 60.9375 C42.4653399 65.09992253 44.94181773 69.24236485 47.4375 73.375 C56.03226634 87.6714837 64.55023092 102.01417122 72.375 116.75 C72.84534668 117.62479004 73.31569336 118.49958008 73.80029297 119.40087891 C74.22455566 120.21218262 74.64881836 121.02348633 75.0859375 121.859375 C75.6435376 122.91850098 75.6435376 122.91850098 76.21240234 123.99902344 C77 126 77 126 77 130 C74.35363202 129.76353746 71.71183583 129.51759085 69.0703125 129.23046875 C66.08195204 128.92042724 66.08195204 128.92042724 63.4296875 129.23828125 C60.46910543 129.40487349 58.73437029 129.19495809 56 128 C52.28813232 124.16269286 49.4586037 119.88416229 46.56738281 115.41015625 C44.30374671 111.929375 41.94427995 108.51637099 39.59399414 105.09375 C37.66346159 102.27743205 35.74681899 99.45204093 33.83203125 96.625 C30.22888853 91.3191332 26.5639243 86.05897012 22.875 80.8125 C17.78250811 73.56832138 12.72584934 66.30164548 7.78857422 58.95043945 C5.11885577 54.99543872 2.37815157 51.15874855 -0.5859375 47.41796875 C-8.8341307 36.87559904 -8.8341307 36.87559904 -9.25390625 32.12890625 C-8.47014264 29.219682 -7.27991979 26.72908516 -6 24 C-5.02635072 20.92210359 -4.20645837 17.80633011 -3.375 14.6875 C-3.15787354 13.92187744 -2.94074707 13.15625488 -2.71704102 12.36743164 C-1.55572542 8.26261901 -0.6055612 4.23219992 0 0 Z " fill="#FF3C96" transform="translate(102,8)"/>
  <path d="M0 0 C2.90221328 1.31270914 4.96712292 2.71898982 7.20703125 4.9765625 C7.79419922 5.56566406 8.38136719 6.15476562 8.98632812 6.76171875 C9.58896484 7.37660156 10.19160156 7.99148437 10.8125 8.625 C11.40353516 9.21667969 11.99457031 9.80835937 12.60351562 10.41796875 C15.57053916 13.41411248 18.42608464 16.46396588 21.16308594 19.671875 C25.23139602 24.33947841 29.5880719 28.67881532 33.99609375 33.0234375 C35.70520628 34.71992298 37.41418695 36.41654132 39.12304688 38.11328125 C41.79655742 40.7618242 44.471652 43.40873075 47.14916992 46.05322266 C49.74828624 48.62232281 52.34130229 51.19745374 54.93359375 53.7734375 C56.1474601 54.96711441 56.1474601 54.96711441 57.385849 56.18490601 C58.12404373 56.91972198 58.86223846 57.65453796 59.62280273 58.41162109 C60.27675522 59.05811615 60.9307077 59.70461121 61.60447693 60.37069702 C63 62 63 62 63 64 C63.66 64 64.32 64 65 64 C65 64.66 65 65.32 65 66 C65.66 66 66.32 66 67 66 C71 70.47058824 71 70.47058824 71 73 C68.27172635 73.50534727 65.54255306 74.00443845 62.8125 74.5 C62.04357422 74.64308594 61.27464844 74.78617187 60.48242188 74.93359375 C59.73154297 75.06894531 58.98066406 75.20429688 58.20703125 75.34375 C57.17799683 75.53227539 57.17799683 75.53227539 56.12817383 75.72460938 C51.33334478 76.34507136 48.7363093 76.27516972 44.8125 73.2890625 C44.03769287 72.70850098 43.26288574 72.12793945 42.46459961 71.52978516 C41.65128174 70.90120605 40.83796387 70.27262695 40 69.625 C39.15638916 68.98739746 38.31277832 68.34979492 37.44360352 67.69287109 C34.95354356 65.80654105 32.47593975 63.90480588 30 62 C28.73892052 61.0408256 27.47727327 60.08239683 26.21484375 59.125 C16.9000251 52.03681506 7.81070593 44.6763993 -1.23828125 37.25390625 C-5.46620344 33.80339549 -9.73054036 30.39889737 -14 27 C-13.36330659 23.9536998 -12.34396124 21.55557015 -10.8203125 18.84765625 C-10.38589844 18.07099609 -9.95148438 17.29433594 -9.50390625 16.49414062 C-9.04886719 15.69169922 -8.59382813 14.88925781 -8.125 14.0625 C-7.45404297 12.86463867 -7.45404297 12.86463867 -6.76953125 11.64257812 C-4.56969072 7.72634285 -2.33970442 3.83494599 0 0 Z " fill="#CF28B1" transform="translate(84,73)"/>
  <path d="M0 0 C3.86598379 0.59010764 6.70273134 1.74232687 10.09375 3.671875 C11.05667969 4.21263672 12.01960938 4.75339844 13.01171875 5.31054688 C14.49091797 6.14682617 14.49091797 6.14682617 16 7 C17.88327953 8.02995908 19.76869363 9.05602497 21.65625 10.078125 C23.08179199 10.85240845 23.08179199 10.85240845 24.53613281 11.64233398 C39.90991572 19.98140816 55.29844265 28.29025328 71 36 C71 36.99 71 37.98 71 39 C68.2037767 40.38974514 65.38622176 41.72963212 62.5625 43.0625 C61.77939453 43.45244141 60.99628906 43.84238281 60.18945312 44.24414062 C51.33737647 48.36053841 44.26564175 46.4218163 35.3125 43.5 C34.50506348 43.23864258 33.69762695 42.97728516 32.86572266 42.70800781 C19.14103144 38.1532029 5.69275247 32.886686 -6.875 25.6875 C-7.96385498 25.07503418 -7.96385498 25.07503418 -9.07470703 24.45019531 C-11.0546875 23.26171875 -11.0546875 23.26171875 -14 21 C-14 15.92642875 -12.70474897 15.18958203 -9.25 11.625 C-5.67829289 7.91752624 -2.73514453 4.33277569 0 0 Z " fill="#9E13CB" transform="translate(53,112)"/>
  <path d="M0 0 C2.61293858 0.67704831 5.00019059 1.52453249 7.49633789 2.54785156 C27.98914989 10.72586719 48.88030806 15.48273622 70.67211914 18.69238281 C69.67211914 21.69238281 69.67211914 21.69238281 68.02075195 22.64379883 C67.31273438 22.90862061 66.6047168 23.17344238 65.87524414 23.44628906 C65.08794922 23.74269287 64.3006543 24.03909668 63.48950195 24.34448242 C62.64226562 24.64491455 61.7950293 24.94534668 60.92211914 25.25488281 C59.62419434 25.72003296 59.62419434 25.72003296 58.30004883 26.19458008 C33.79738444 34.69675877 8.02072717 30.87551026 -15.06225586 19.96972656 C-17.84467284 18.58831531 -20.59852896 17.17538327 -23.32788086 15.69238281 C-22.32788086 12.69238281 -22.32788086 12.69238281 -20.14038086 11.33300781 C-19.21225586 10.87410156 -18.28413086 10.41519531 -17.32788086 9.94238281 C-12.45312677 7.42903557 -8.47679381 4.56716988 -4.39819336 0.91503906 C-2.32788086 -0.30761719 -2.32788086 -0.30761719 0 0 Z " fill="#6D00E5" transform="translate(24.327880859375,141.3076171875)"/>
</svg>