<svg role="img" viewBox="0 0 256 160" xmlns="http://www.w3.org/2000/svg" aria-labelledby="spectecTitle">
  <title id="spectecTitle">SpecTec</title>
  <defs>
    <linearGradient id="spectecGradA" x1="20" y1="140" x2="236" y2="20" gradientUnits="userSpaceOnUse">
      <stop offset="0" stop-color="#5b17ff" />
      <stop offset="1" stop-color="#ff3da4" />
    </linearGradient>
    <linearGradient id="spectecGradB" x1="30" y1="150" x2="230" y2="26" gradientUnits="userSpaceOnUse">
      <stop offset="0" stop-color="#6f14ff" />
      <stop offset="1" stop-color="#ff419f" />
    </linearGradient>
  </defs>

  <path
    fill="url(#spectecGradA)"
    d="M168 18c3-2 8-2 10 2l58 114c2 4 0 8-5 8h-30L140 28c-2-3-1-7 2-10z"
  />
  <path
    fill="url(#spectecGradB)"
    d="M128 46c3-2 7-2 10 1l44 51c3 3 2 8-2 10l-22 14c-3 2-7 2-10-1l-44-51c-3-3-2-8 2-10z"
  />
  <path
    fill="url(#spectecGradA)"
    d="M92 78c3-2 7-2 10 1l37 35c3 3 2 8-1 10l-18 10c-3 2-7 2-10-1L73 98c-3-3-2-7 1-9z"
  />
  <path
    fill="url(#spectecGradB)"
    d="M24 132c0-4 3-7 7-8l84-18c5-1 9 2 9 7v18c0 4-3 8-7 9l-84 18c-5 1-9-2-9-7z"
  />
</svg>

